<svg id="Layer_2" data-name="Layer 2" xmlns="http://www.w3.org/2000/svg" xmlns:xlink="http://www.w3.org/1999/xlink" viewBox="0 0 400 300" width="406" height="306" class="illustration styles_illustrationTablet__1DWOa"><defs><linearGradient id="linear-gradient" x1="159.58" y1="227.23" x2="193.97" y2="194.88" gradientUnits="userSpaceOnUse"><stop offset="0" stop-opacity="0"></stop><stop offset="0.99" stop-color="#552800"></stop></linearGradient><linearGradient id="linear-gradient-2" x1="163.37" y1="122.92" x2="185.53" y2="102.08" xlink:href="#linear-gradient"></linearGradient><linearGradient id="linear-gradient-3" x1="89.84" y1="191.47" x2="112" y2="170.63" xlink:href="#linear-gradient"></linearGradient></defs><title>PP</title><path d="M194.73,278.19,29,180.22c-5.28-3-9.8-7.83-4.66-11L190.67,73.33c2.5-1.55,6.29-2.56,8.82-1.09l174,101c5.28,3.06,6.22,11.63.94,14.69L216.58,278A22,22,0,0,1,194.73,278.19Z" fill="#ffd4bf"></path><path d="M116.92,212.59c3.15,1,8.69,7.42,11.92,8.07,2,.4,54.87,35.51,56.87,35.66l48.2-30.4L171.48,195,154,179.26l-42.38,24.46C116.84,207.53,110.83,210.73,116.92,212.59Z" opacity="0.32" fill="url(#linear-gradient)"></path><path d="M138.21,193l73.6,42.5a5.53,5.53,0,0,0,5.54,0l112.27-64.83a3,3,0,0,0,0-5.25l-74.92-43.2a3,3,0,0,0-3,0L138.21,187.73A3,3,0,0,0,138.21,193Z" fill="#ab2f6e"></path><polyline points="140.78 173.87 140.78 188.06 215.72 231.33 326.47 165.18 326.47 153.18" fill="#b3b3b3"></polyline><polygon points="140.78 173.87 215.72 217.13 326.47 153.18 251.47 109.93 140.78 173.87" fill="#f2f2f2"></polygon><path d="M320.93,146.71c-2.62-.17-4.21,2.3-3.76,4.7.12.63,1.08.36,1-.27a2.77,2.77,0,0,1,2.47-3.44,2.23,2.23,0,0,1,2.08,3.25c-.29.57.57,1.08.86.5A3.23,3.23,0,0,0,320.93,146.71Z" fill="#431700"></path><path d="M308.43,139.61c-2.62-.17-4.21,2.3-3.76,4.7.12.63,1.08.36,1-.27a2.77,2.77,0,0,1,2.47-3.44,2.23,2.23,0,0,1,2.08,3.25c-.29.57.57,1.08.86.5A3.23,3.23,0,0,0,308.43,139.61Z" fill="#431700"></path><path d="M295.37,131.54c-2.62-.17-4.21,2.3-3.76,4.7.12.63,1.08.36,1-.27a2.77,2.77,0,0,1,2.47-3.44,2.23,2.23,0,0,1,2.08,3.25c-.29.57.57,1.08.86.5A3.23,3.23,0,0,0,295.37,131.54Z" fill="#431700"></path><path d="M283.84,124.44c-2.62-.17-4.21,2.3-3.76,4.7.12.63,1.08.36,1-.27a2.77,2.77,0,0,1,2.47-3.44,2.23,2.23,0,0,1,2.08,3.25c-.29.57.57,1.08.86.5A3.23,3.23,0,0,0,283.84,124.44Z" fill="#431700"></path><path d="M273.24,119.27c-2.62-.17-4.21,2.3-3.76,4.7.12.63,1.08.36,1-.27a2.77,2.77,0,0,1,2.47-3.44,2.23,2.23,0,0,1,2.08,3.25c-.29.57.57,1.08.86.5A3.23,3.23,0,0,0,273.24,119.27Z" fill="#431700"></path><path d="M260.68,111.24c-2.62-.17-4.21,2.3-3.76,4.7.12.63,1.08.36,1-.27a2.77,2.77,0,0,1,2.47-3.44,2.23,2.23,0,0,1,2.08,3.25c-.29.57.57,1.08.86.5A3.23,3.23,0,0,0,260.68,111.24Z" fill="#431700"></path><ellipse cx="317.18" cy="151.41" rx="2.67" ry="1.57" fill="#2d0f02"></ellipse><ellipse cx="304.6" cy="144.67" rx="2.67" ry="1.57" fill="#2d0f02"></ellipse><ellipse cx="291.53" cy="136.6" rx="2.67" ry="1.57" fill="#2d0f02"></ellipse><ellipse cx="280" cy="129.5" rx="2.67" ry="1.57" fill="#2d0f02"></ellipse><ellipse cx="269.4" cy="123.97" rx="2.67" ry="1.57" fill="#2d0f02"></ellipse><ellipse cx="256.85" cy="116.3" rx="2.67" ry="1.57" fill="#2d0f02"></ellipse><line x1="236.14" y1="126.43" x2="297.08" y2="161.78" fill="#2d0f02"></line><path d="M235.76,127.08l60.94,35.35a.75.75,0,0,0,.76-1.3l-60.94-35.35a.75.75,0,0,0-.76,1.3Z" fill="#999"></path><line x1="227.29" y1="131.76" x2="288.23" y2="167.1" fill="#2d0f02"></line><path d="M226.91,132.4l60.94,35.35a.75.75,0,0,0,.76-1.3l-60.94-35.35a.75.75,0,0,0-.76,1.3Z" fill="#999"></path><line x1="219.16" y1="135.41" x2="280.1" y2="170.76" fill="#2d0f02"></line><path d="M218.78,136.06l60.94,35.35a.75.75,0,0,0,.76-1.3l-60.94-35.35a.75.75,0,0,0-.76,1.3Z" fill="#999"></path><line x1="210.31" y1="140.74" x2="271.26" y2="176.09" fill="#2d0f02"></line><path d="M209.93,141.39l60.94,35.35a.75.75,0,0,0,.76-1.3l-60.94-35.35a.75.75,0,0,0-.76,1.3Z" fill="#999"></path><line x1="194.55" y1="151.26" x2="255.5" y2="186.61" fill="#2d0f02"></line><path d="M194.17,151.91l60.94,35.35a.75.75,0,0,0,.76-1.3l-60.94-35.35a.75.75,0,0,0-.76,1.3Z" fill="#999"></path><line x1="185.71" y1="156.58" x2="246.65" y2="191.93" fill="#2d0f02"></line><path d="M185.33,157.23l60.94,35.35a.75.75,0,0,0,.76-1.3l-60.94-35.35a.75.75,0,0,0-.76,1.3Z" fill="#999"></path><line x1="177.57" y1="160.24" x2="238.52" y2="195.59" fill="#2d0f02"></line><path d="M177.19,160.89l60.94,35.35a.75.75,0,0,0,.76-1.3L178,159.59a.75.75,0,0,0-.76,1.3Z" fill="#999"></path><line x1="170.97" y1="164.53" x2="231.92" y2="199.87" fill="#2d0f02"></line><path d="M170.59,165.17l60.94,35.35a.75.75,0,0,0,.76-1.3l-60.94-35.35a.75.75,0,0,0-.76,1.3Z" fill="#999"></path><path d="M158.94,127.54c3.15,1,6.31,1.91,9.55,2.56a48.87,48.87,0,0,0,6,.69l3.36-2.28,23.25-17.29-17.78-5.91L141.23,120C146.43,123.79,152.85,125.68,158.94,127.54Z" opacity="0.32" fill="url(#linear-gradient-2)"></path><path d="M191.78,92.43c-4.19-.36-8.61-1.63-11.71-4.5v12.44A12.91,12.91,0,0,0,193,113.27h0a12.91,12.91,0,0,0,12.91-12.91V87.72C201.48,89.51,196.48,92.84,191.78,92.43Z" fill="#68e1fd"></path><ellipse cx="192.97" cy="87.85" rx="12.91" ry="6.84" fill="#5ed18d"></ellipse><path d="M193,89s-8.78-1.29-11.1-15.49C181.87,73.52,189.36,77.65,193,89Z" fill="#5ed18d"></path><path d="M194.26,87.2s-10.07-18.07,0-30.2A50.62,50.62,0,0,1,194.26,87.2Z" fill="#5ed18d"></path><path d="M193,75.84s-8.78-1.29-11.1-15.49C181.87,60.36,189.36,64.49,193,75.84Z" fill="#5ed18d"></path><path d="M194,81.63s-2.2-8.59,10-16.22C204,65.41,203.12,73.91,194,81.63Z" fill="#5ed18d"></path><ellipse cx="192.97" cy="87.85" rx="12.91" ry="6.84" fill="#146666"></ellipse><path d="M193,89s-8.78-1.29-11.1-15.49C181.87,73.52,189.36,77.65,193,89Z" fill="#5ed18d"></path><path d="M194.26,87.2s-10.07-18.07,0-30.2A50.62,50.62,0,0,1,194.26,87.2Z" fill="#5ed18d"></path><path d="M193,75.84s-8.78-1.29-11.1-15.49C181.87,60.36,189.36,64.49,193,75.84Z" fill="#5ed18d"></path><path d="M194,81.63s-2.2-8.59,10-16.22C204,65.41,203.12,73.91,194,81.63Z" fill="#5ed18d"></path><path d="M258,155.88l-2.86-1.54c.32-.79-.58-1.33-1.23-1.23l-4.1-3.1a1,1,0,0,0-1-1.73l-3.87-.76.21-.11c1-.55.32-2.2-.77-1.83l-.24.11h0l-.06,0a3.25,3.25,0,0,0-.41.22,11.16,11.16,0,0,1-5.66,1.42c2.31-1.59,3.56-3.31.18-5.8l-.3-.2a16.62,16.62,0,0,0,4.39-7.78c2.87-12.42-16.36-4.59-20.75-1.5-1,.73,0,2.47,1,1.73a27.2,27.2,0,0,1,8.7-4.24c1.61-.43,4-1.35,5.49-.82a4.81,4.81,0,0,1,2.72,6.64,18.31,18.31,0,0,1-3.63,4.89c-3.72-1.42-8.23-.81-12,0-3.39.71-12.78,2.2-14.12,6.32-1,3.16,2.47,3.86,4.78,3.89a35.69,35.69,0,0,0,20.83-6.85c0,.14.06.28.07.44q2.2,2.39-.84,3.06a1,1,0,0,0,.24,1.83,13.65,13.65,0,0,0,7.63-.32,3.42,3.42,0,0,0,.23.8c.83,1.94,2.62,2.08,4.37,1.64a3.51,3.51,0,0,0,.51,2.06c1.14,1.95,3.29,2.22,5.33,2.07-.06,2.51,3.27,3,5.64,2.59C259.81,157.61,259.27,155.68,258,155.88Zm-42.62-7.4q-2.42.9-1.8-1.37-.71-1.88,1.37-2c1.16-.89,3.16-1.24,4.57-1.68a40.78,40.78,0,0,1,9.26-1.93,20,20,0,0,1,3.08,0,3.46,3.46,0,0,1,2.29.24,30.86,30.86,0,0,1-9.58,5.06C222,147.66,218.07,149.09,215.39,148.47Z" fill="#431700"></path><path d="M123.85,31.71s-11.37,5.83-16.65,8.56-20.86,7.69-21,13.8,5.27,8.1,2.34,12.72-2,13.15,5,14.84,32.81-27.82,32.81-27.82" fill="#663a12"></path><path d="M106,169.61s-.16,8.09.81,8.58,7.06,8.45,7.49,9.7c1.41,4.15-3.51,3.83-6.26,2.43s-10.1-7-10.42-9S95,167.24,95,167.24" fill="#663a12"></path><path d="M117.47,162.57s-.16,8.09.81,8.58,8.23,7.71,8.74,8.93c1.59,3.85-3.47,4-6.22,2.6s-11.39-6.45-11.71-8.42-2.58-14.06-2.58-14.06" fill="#663a12"></path><path d="M86.43,84.7s-5.8,9.08-5,17.23,8.93,73,14.17,72.3,8.37.09,11.11-6.77c0,0,8.8,2,11.59-5,0,0-2.12-60.8-7.12-70.33S86.43,84.7,86.43,84.7Z" fill="#68e1fd"></path><path d="M161.41,60.88a27.72,27.72,0,0,0-4.44-.74,24.79,24.79,0,0,1,4.54.47c1.56.25,1.74-2.2.19-2.46l-.77-.12a1.28,1.28,0,0,0-.8-2.07,24.15,24.15,0,0,0-10.19.93,20.51,20.51,0,0,0-.07-3.73,1.09,1.09,0,0,0-.24-.58,1.29,1.29,0,0,0-2.44.33c-.34,2-.24,4-.57,5.94a7.76,7.76,0,0,1-.27,1q-2.28,2.36-4.48,4.79c-1,1.15.87,2.51,1.94,1.49a1.45,1.45,0,0,0,.66.54l-.18.24a1.1,1.1,0,0,0-.13,1.1l-.17.17c-1.13,1.1.45,3,1.58,1.89l.39-.4a1,1,0,0,0,1.44-.4,11.6,11.6,0,0,1,3.82-3.8l.48-.33a15.59,15.59,0,0,1,4.14-.81c1,.27,2.09.58,3.12.91a1.23,1.23,0,0,0,1-2.25l.67.15C162.1,63.59,162.95,61.27,161.41,60.88Z" fill="#ffc388"></path><path d="M161.11,57.71a27.25,27.25,0,0,0-4.9-.22c-.4,0-.45.65,0,.63a27.25,27.25,0,0,1,4.9.22C161.47,58.39,161.51,57.76,161.11,57.71Z" fill="#663a12"></path><path d="M161.34,60.2a33.76,33.76,0,0,0-5.22-.37c-.4,0-.45.63,0,.63a33.75,33.75,0,0,1,5.22.37C161.7,60.89,161.74,60.26,161.34,60.2Z" fill="#663a12"></path><path d="M154.4,61a6.41,6.41,0,0,0-5.66,1.07c-.34.22.07.7.4.48a5.73,5.73,0,0,1,5-1A.31.31,0,0,0,154.4,61Z" fill="#663a12"></path><path d="M155.4,60.88a4.39,4.39,0,0,0-2.36-3.4c-.37-.16-.59.44-.21.59a3.75,3.75,0,0,1,2,2.92C154.87,61.39,155.49,61.28,155.4,60.88Z" fill="#663a12"></path><path d="M160.45,62.49a13.32,13.32,0,0,0-4-1.09c-.4,0-.45.58,0,.63a12.77,12.77,0,0,1,3.86,1.05C160.61,63.25,160.82,62.65,160.45,62.49Z" fill="#663a12"></path><path d="M133.56,57.64l2.89,17.68s-2.2,6.59-6.93,7.44-8.28-21.13-8.28-21.13" fill="#fcb749"></path><path d="M119.56,48.17c-.65-.16-6.06.75-10.75,2.27S83.75,81.73,86.43,84.7s15.25,8.91,22.8,7.27,25.15-31,24.33-34.34c-1.89-7.65-7.8-7.67-7.8-7.67" fill="#fcb749"></path><path d="M133,40.31s1.37,11.21-2.69,13.23-8.46-2.18-9.77-4.62-2.7-14.77,4.92-13.94S133,40.31,133,40.31Z" fill="#ffc388"></path><path d="M133.21,32.92c-3.1-1.08-6.69-3.41-12.2.23s-7.23,13.76-.64,16.21l.93-2.73a4.24,4.24,0,0,1-.47-.65,3.28,3.28,0,0,1-.52-1.64,3.34,3.34,0,0,1,.08-1.76c0-.07,0-.13,0-.2q6.6,0,13.19,0a2.69,2.69,0,0,0,2.3-1.09C137.61,40,137.12,34.28,133.21,32.92Z" fill="#663a12"></path><path d="M144.9,60.21c-3.84,2.39-11.66,9.33-11.66,9.33l-5.7,12.26s3.34,4.72,9.57,1.4c4.42-2.36,11.4-10.94,14.74-16.05A12.66,12.66,0,0,0,144.9,60.21Z" fill="#fcb749"></path><path d="M102.93,103.53c-.08-.84-1.4-.84-1.32,0l6,63.86c.08.84,1.4.84,1.32,0Z" fill="#663a12"></path><path d="M123.21,80.92s-6.55-5.45-6.55-7.83,3.4-19.87-2.23-21.26-10.19,11.83-11.8,19.6,16.85,22.13,16.85,22.13" fill="#fcb749"></path><path d="M122.68,40c-.34-3.82-6.34-3.85-6,0,.2,2.28.55,4.82-.16,7a7.13,7.13,0,0,1-1.7,3l-.55,0a9.37,9.37,0,0,0-2-.1c-3.86,0-3.87,6,0,6,1.83,0,3.52.81,5.17-.27a12.73,12.73,0,0,0,3.66-4.24C123.12,47.84,123,43.86,122.68,40Z" fill="#663a12"></path><path d="M88.53,37.81c.61-4.66,4.89-8.57,9.49-9.46l88.29,99.47-10,8.88Z" fill="#68e1fd"></path><ellipse cx="181.31" cy="132.26" rx="6.69" ry="2.83" transform="translate(-42.09 153.7) rotate(-41.59)" fill="#68e1fd"></ellipse><path d="M176.84,137.3s-1.32-3.32,2.84-6.69,6.78-2.61,6.78-2.61l12.7,23.14Z" fill="#fff8e3"></path><path d="M199.16,151.13l-10.37-6.43s.39-3.54,4.66-4Z" fill="#653200"></path><path d="M134.73,94.48l6,.7s4.8-1,5.87.88c.29.51-4.77,1.23-4.77,1.23s7.29,1.92,6.85,3.36-5.29,4.21-6.22,4.47-10.18-7-10.18-7" fill="#ffc388"></path><path d="M137.61,93.94c-2.36-3.34-7.27-6.61-11.27-10.39-5.43-4.5-11.1-10.2-15.48-4.05-4.87,6.84,14.27,19.67,19.84,23.2A17.76,17.76,0,0,0,137.61,93.94Z" fill="#fcb749"></path><path d="M102.14,70.73a23,23,0,0,0-.58,10.15c.49,2.56,1.22,5.06,1.91,7.58A45.43,45.43,0,0,0,113,89.74s-8.89-9.49-9.62-13.9a21,21,0,0,1,0-7.5Z" fill="#bc7c1e"></path><path d="M85.41,196.09c3.15,1,6.31,1.91,9.55,2.56a48.87,48.87,0,0,0,6,.69l3.36-2.28,23.25-17.29-17.78-5.91L67.7,188.53C72.9,192.34,79.32,194.23,85.41,196.09Z" opacity="0.32" fill="url(#linear-gradient-3)"></path></svg>