<svg xmlns="http://www.w3.org/2000/svg"  viewBox="0 0 100 100" width="100px" height="100px"><path fill="#f15b6c" d="M69,82H31c-7.18,0-13-5.82-13-13V31c0-7.18,5.82-13,13-13h38c7.18,0,13,5.82,13,13v38	C82,76.18,76.18,82,69,82z"/><path fill="#1f212b" d="M66.5,78h-33C27.159,78,22,72.841,22,66.5v-33C22,27.159,27.159,22,33.5,22h33	c0.353,0,0.701,0.021,1.046,0.053c0.275,0.025,0.477,0.269,0.452,0.544c-0.025,0.274-0.258,0.476-0.544,0.452	C67.139,23.02,66.822,23,66.5,23h-33C27.71,23,23,27.71,23,33.5v33C23,72.29,27.71,77,33.5,77h33C72.29,77,77,72.29,77,66.5v-17	c0-0.276,0.224-0.5,0.5-0.5s0.5,0.224,0.5,0.5v17C78,72.841,72.841,78,66.5,78z M77.5,40c-0.276,0-0.5-0.224-0.5-0.5v-2	c0-0.276,0.224-0.5,0.5-0.5s0.5,0.224,0.5,0.5v2C78,39.776,77.776,40,77.5,40z M77.5,47c-0.276,0-0.5-0.224-0.5-0.5v-4	c0-0.276,0.224-0.5,0.5-0.5s0.5,0.224,0.5,0.5v4C78,46.776,77.776,47,77.5,47z"/><path fill="#1f212b" d="M69,83H31c-7.72,0-14-6.28-14-14V31c0-7.72,6.28-14,14-14h38c7.72,0,14,6.28,14,14v38	C83,76.72,76.72,83,69,83z M31,19c-6.617,0-12,5.383-12,12v38c0,6.617,5.383,12,12,12h38c6.617,0,12-5.383,12-12V31	c0-6.617-5.383-12-12-12H31z"/><path fill="#fefdef" d="M61.957,48.415C58.749,48.972,54.504,49.28,50,49.28c-4.503,0-8.749-0.308-11.955-0.865	c-3.593-0.625-5.423-1.467-5.901-2.735C32.058,45.908,32,46.144,32,46.4v7.2c0,1.685,1.809,2.719,6.045,3.455	C41.25,57.612,45.497,57.92,50,57.92c4.504,0,8.749-0.308,11.958-0.865C66.192,56.319,68,55.285,68,53.6v-7.2	c0-0.256-0.056-0.492-0.141-0.72C67.38,46.948,65.549,47.79,61.957,48.415"/><path fill="#fefdef" d="M61.957,59.935C58.749,60.492,54.504,60.8,50,60.8c-4.503,0-8.749-0.308-11.955-0.865	c-3.593-0.625-5.423-1.467-5.901-2.735C32.058,57.428,32,57.664,32,57.92v7.2c0,1.685,1.809,2.719,6.045,3.455	C41.25,69.132,45.497,69.44,50,69.44c4.504,0,8.749-0.308,11.958-0.865C66.192,67.839,68,66.805,68,65.12v-7.2	c0-0.256-0.056-0.492-0.141-0.72C67.38,58.467,65.549,59.31,61.957,59.935"/><path fill="#fefdef" d="M61.958,31.425C58.75,30.867,54.504,30.56,50,30.56c-4.503,0-8.749,0.307-11.956,0.865	C33.809,32.161,32,33.195,32,34.88v7.2c0,1.685,1.809,2.719,6.044,3.455C41.251,46.093,45.497,46.4,50,46.4	c4.504,0,8.749-0.307,11.958-0.865C66.193,44.798,68,43.765,68,42.08v-7.2C68,33.195,66.193,32.161,61.958,31.425z M50,32	c9.147,0,16.56,1.29,16.56,2.88S59.147,37.76,50,37.76c-9.145,0-16.56-1.29-16.56-2.88S40.855,32,50,32z"/><path fill="#f15b6c" d="M56.235,41.517c-0.45,0-0.83-0.349-0.861-0.805c-0.032-0.476,0.327-0.889,0.804-0.921	c2.217-0.151,4.207-0.379,5.914-0.676c0.606-0.104,1.434-0.247,2.278-0.465c0.456-0.12,0.933,0.158,1.053,0.621	c0.119,0.462-0.159,0.933-0.621,1.052c-0.913,0.236-1.781,0.385-2.415,0.495c-1.765,0.307-3.814,0.542-6.092,0.697	C56.275,41.516,56.255,41.517,56.235,41.517z"/><path fill="#f15b6c" d="M56.235,53.037c-0.45,0-0.83-0.349-0.861-0.805c-0.032-0.476,0.327-0.889,0.804-0.921	c2.212-0.151,4.202-0.379,5.914-0.676c0.606-0.104,1.434-0.247,2.278-0.465c0.456-0.121,0.933,0.157,1.053,0.621	c0.119,0.462-0.159,0.933-0.621,1.052c-0.913,0.236-1.781,0.385-2.415,0.495c-1.77,0.308-3.819,0.542-6.092,0.697	C56.275,53.036,56.255,53.037,56.235,53.037z"/><path fill="#f15b6c" d="M56.235,64.556c-0.45,0-0.83-0.35-0.861-0.806c-0.032-0.476,0.327-0.888,0.804-0.92	c2.211-0.151,4.201-0.378,5.914-0.676c0.606-0.104,1.434-0.247,2.278-0.465c0.456-0.12,0.933,0.158,1.053,0.621	c0.119,0.462-0.159,0.933-0.621,1.052c-0.913,0.236-1.781,0.385-2.415,0.495c-1.771,0.308-3.821,0.542-6.092,0.697	C56.275,64.555,56.255,64.556,56.235,64.556z"/></svg>