<svg id="Layer_2" data-name="Layer 2" xmlns="http://www.w3.org/2000/svg" xmlns:xlink="http://www.w3.org/1999/xlink" viewBox="0 0 400 300" width="406" height="306" class="illustration styles_illustrationTablet__1DWOa"><defs><linearGradient id="linear-gradient" x1="172.97" y1="274.79" x2="207.71" y2="240.04" gradientUnits="userSpaceOnUse"><stop offset="0" stop-color="#acf4e6"></stop><stop offset="1" stop-color="#8ecdc6"></stop></linearGradient><linearGradient id="linear-gradient-2" x1="299" y1="201.55" x2="316.9" y2="187.93" xlink:href="#linear-gradient"></linearGradient></defs><title>PP</title><path d="M233.75,95.64l136.38,78.59a5.54,5.54,0,0,1,0,9.6L177.74,294.24a15.49,15.49,0,0,1-15.12.17L30,222.16a5.54,5.54,0,0,1-.12-9.65L235.63,93.43" fill="#acf4e6"></path><path d="M225.17,246.91l-49.9,28.52c-18.27-12.6-16.41-10.69-16.41-10.69l36.61-17.62s9.73,2.62,10.13,1.07,5.36-6.72,5.36-6.72l11.82-.21Z" fill="url(#linear-gradient)"></path><path d="M320.91,185.44l-44.33,15.83S272.65,208.71,295,222l35.48-32.72" fill="url(#linear-gradient-2)"></path><path d="M308.5,136.73a8.72,8.72,0,0,1,4.24.83,6.9,6.9,0,0,1,3,3.41c.65,1.37.94,3.33,2.3,4.21a4,4,0,0,1,1.34,1.17,3.5,3.5,0,0,1,.42,3.26c-.6,1.2-3.11,1.95-4.26,1.72" fill="#8fdb5e"></path><path d="M307.39,136.88a8.19,8.19,0,0,0-7.23,6.2,10.82,10.82,0,0,0-.05,5.11c.33,1.36,1.13,3.71,2.78,3.81,2.24.14,3-2,3.67-3.67s1.44-3.61,3.24-4.29A4.82,4.82,0,0,1,315,145.2Z" fill="#1e8c0e"></path><path d="M317.61,146c-1.35-1.75-2.47-3.66-3.78-5.44a16.18,16.18,0,0,0-2.62-3.17c-3.11-1.51-7-.13-9.32,2.52.32.1.75.11,1,.2a8.85,8.85,0,0,1,3.56,2.52c1.38,1.52,2.45,3.39,3.66,5,2,2.63,4.6,4.79,8,3.22C320.26,149.81,318.57,147.2,317.61,146Z" fill="#8fdb5e"></path><path d="M328.59,123.47s7-.55,6.87,10.53-10.6,3.79-8.3-2.89" fill="#1e8c0e"></path><path d="M327.58,134.37c-.08-3.37,3.71-5.83,6.91-6.27a6.48,6.48,0,0,0-6.33-5c-4.8.12-8.39,5-9.2,10.74a11,11,0,0,0,3.53,9.38l2.32,2C329.05,143.59,327.47,137.45,327.58,134.37Z" fill="#8fdb5e"></path><path d="M346.66,142.3a14.63,14.63,0,0,0-1.62-6,6.63,6.63,0,0,0-4.56-3.53l-3.95,7.6s5.88-10.28,3.48-2.36,5.52,16.79,6.6,5C346.63,142.74,346.64,142.53,346.66,142.3Z" fill="#1e8c0e"></path><path d="M318.78,162.08s-5.27,3.43-3.81,11.45a44,44,0,0,0,2.34,8.14c1,2.61,1.77,6,4.4,7.45,2.45,1.37,6.24,1.62,8.71.11,2.26-1.38,3.07-4.52,3.9-6.85a42.52,42.52,0,0,0,2-8.85C338.84,154.14,318.78,162.08,318.78,162.08Z" fill="#68e1fd"></path><ellipse cx="325.88" cy="163.25" rx="7.69" ry="2.78" fill="#68e1fd"></ellipse><path d="M326.5,148.44c-1.07-2.59-3.08-4.77-3.71-7.55a9.88,9.88,0,0,1,3.93-10.08c.59-.43,0-1.41-.57-1-4.92,3.57-5.87,9.67-3,14.86a27,27,0,0,1,2.59,4.93c.71,2.32-.08,4-1.17,5.72a6.59,6.59,0,0,0-1.71-4.66c-1.28-1.19-3.16-1.38-4.74-1.92-3.06-1-5.76-2.78-6.28-6.2-.11-.72-1.21-.41-1.1.3a8.2,8.2,0,0,0,4.73,6.05A32.93,32.93,0,0,0,320,150.5a5.31,5.31,0,0,1,3,2.94c.73,1.67.23,2.82-.18,4.44-.53,2.11-1.37,3.92.08,5.91.43.59,1.41,0,1-.57-2.31-3.18,1.38-6.2,2.62-8.93A7,7,0,0,0,326.5,148.44Z" fill="#1e8c0e"></path><path d="M340.69,141.47c-4.86-.86-8.17,2.91-7.88,7.61a17.84,17.84,0,0,0,.65,3.48,9.11,9.11,0,0,1,.64,3,4.59,4.59,0,0,1-2.78,3.25,6.62,6.62,0,0,0-4.1,4.5.57.57,0,0,0,1.1.3c1.12-4.12,6.87-3.52,6.92-8.05,0-2.21-1.16-4.29-1.29-6.51-.24-3.87,2.29-7.25,6.44-6.51C341.1,142.69,341.41,141.59,340.69,141.47Z" fill="#1e8c0e"></path><path d="M345,136.28c-1.88-3.47-5.3-4.29-8.66-3.25a11,11,0,0,0-1.35.66c-8.44,6.25-2.45,20.36-1.15,20.26,4.3-.35,3.86-2.88,5.29-10a6.68,6.68,0,0,1,6.72-5.66A12.5,12.5,0,0,0,345,136.28Z" fill="#8fdb5e"></path><path d="M343.18,134a7,7,0,0,0-7.19,3.45c-3.08,5.16-2.37,11.17-2,16.86.05.73,1.19.73,1.14,0-.3-4.11-.88-8.19.24-12.23.55-2,1.21-4.19,2.79-5.6a5.83,5.83,0,0,1,6.35-.91l-.43-.58C343.8,134.64,343.49,134.31,343.18,134Z" fill="#1e8c0e"></path><path d="M80.7,205.5V103.38c0-3.39.47-5.29,3.08-6.71L222.52,16.33a1.84,1.84,0,0,1,2.93,1.48l-.34,105Z" fill="#68e1fd"></path><ellipse cx="211.38" cy="40.87" rx="6.03" ry="5.27" transform="translate(89.58 218.4) rotate(-66.49)" fill="#fff"></ellipse><polygon points="106.19 133.78 106.19 172.08 114.13 167.44 114.21 129.15 106.19 133.78" fill="#5fad00"></polygon><polygon points="119.53 119.63 119.39 164.66 127.72 159.82 127.72 115.01 119.53 119.63" fill="#f8997c"></polygon><polygon points="132.97 107.45 132.84 157.13 140.26 152.83 140.26 103.02 132.97 107.45" fill="#fff"></polygon><ellipse cx="211.38" cy="56.7" rx="6.03" ry="5.27" transform="translate(75.06 227.91) rotate(-66.49)" fill="#f8997c"></ellipse><ellipse cx="211.38" cy="72.02" rx="6.03" ry="5.27" transform="matrix(0.56, -0.83, 0.83, 0.56, 33.96, 207.63)" fill="#5fad00"></ellipse><path d="M184.47,64c-12.61-4-26.75,6.29-32.19,23.43a39,39,0,0,0-.58,22.95c2.31,7.51,7.06,12.75,13.37,14.76a18.2,18.2,0,0,0,5.53.86,22.85,22.85,0,0,0,13.91-5.2,39,39,0,0,0,12.76-19.08C202.7,84.59,197.08,68,184.47,64Z" fill="#fff"></path><path d="M174.79,63.61c-.1,0,0,31.77,0,31.77L198.11,79.5S193.62,60.32,174.79,63.61Z" fill="#f8997c"></path><path d="M106.89,176.78v0a1.83,1.83,0,0,0,2.73,1.59l34.12-19.49a1.83,1.83,0,0,0,.92-1.59h0a1.83,1.83,0,0,0-2.73-1.59l-34.12,19.44A1.83,1.83,0,0,0,106.89,176.78Z" fill="#ffe427"></path><path d="M99.46,102v13.81a1.94,1.94,0,0,0,2.91,1.68l37.55-21.69a1.94,1.94,0,0,0,1-1.68V80.33A1.94,1.94,0,0,0,138,78.65l-37.55,21.68A1.94,1.94,0,0,0,99.46,102Z" fill="#ffe427"></path><ellipse cx="107.86" cy="105.48" rx="6.12" ry="4.9" transform="translate(-25.3 176.38) rotate(-72.39)" fill="#fff"></ellipse><path d="M114.59,98.3l22-12.29a.75.75,0,0,0-.76-1.3L113.83,97a.75.75,0,0,0,.76,1.3Z" fill="#7f47dd"></path><path d="M115.41,103.67,129.05,96a.75.75,0,0,0-.76-1.3l-13.64,7.64a.75.75,0,0,0,.76,1.3Z" fill="#7f47dd"></path><path d="M174.79,95.38l23.63,2s3-10.2-.31-17.85Z" fill="#5fad00"></path><path d="M146.62,149.24a23.29,23.29,0,0,1-4.63-.46,24.63,24.63,0,0,1-16.55-12.38,32.69,32.69,0,0,1,8.3-41,24.15,24.15,0,0,1,36.62,7.42,31.74,31.74,0,0,1,3.27,22C170.73,139.15,159.15,149.24,146.62,149.24Zm2.52-54.11a20.12,20.12,0,0,0-12.26,4.36,27.53,27.53,0,0,0-7,34.35A19.54,19.54,0,0,0,143,143.71c11.39,2.31,22.86-6.63,25.55-19.92a26.58,26.58,0,0,0-2.69-18.42,19.54,19.54,0,0,0-13.09-9.87A18.3,18.3,0,0,0,149.15,95.13Z" fill="#68e1fd"></path><path d="M172.09,130.14l41.48,20.45s1.67,5.43-1.95,6.8-45.8-21.4-45.8-21.4" fill="#68e1fd"></path><g opacity="0.25"><path d="M146.62,149.24a23.29,23.29,0,0,1-4.63-.46,24.63,24.63,0,0,1-16.55-12.38,32.69,32.69,0,0,1,8.3-41,24.15,24.15,0,0,1,36.62,7.42,31.74,31.74,0,0,1,3.27,22C170.73,139.15,159.15,149.24,146.62,149.24Zm2.52-54.11a20.12,20.12,0,0,0-12.26,4.36,27.53,27.53,0,0,0-7,34.35A19.54,19.54,0,0,0,143,143.71c11.39,2.31,22.86-6.63,25.55-19.92a26.58,26.58,0,0,0-2.69-18.42,19.54,19.54,0,0,0-13.09-9.87A18.3,18.3,0,0,0,149.15,95.13Z"></path><path d="M172.09,130.14l41.48,20.45s1.67,5.43-1.95,6.8-45.8-21.4-45.8-21.4"></path></g><path d="M194.71,142.16q-3.69-1.87-7.27-4a29.07,29.07,0,0,0-1.41-2.67,3.72,3.72,0,0,0-3.82-2,1.28,1.28,0,0,0,.09,2.53l.2.23c-3,.13-8.31.57-7.1,3.49a2.25,2.25,0,0,0-.3.29,1.88,1.88,0,0,0,.18,2.57,2.17,2.17,0,0,0,2,.55,2,2,0,0,0,2.61,1l.73-.22A1.15,1.15,0,0,0,182,145.2l2.45-.47c5.56,1.77,8.32,2.41,10.41,3.83.87.59,0,.81,0,0a1.16,1.16,0,0,0-.27-1.67l-.24-.17a1.19,1.19,0,0,0,.2-1.72c-.09-.12-.2-.23-.3-.34A1.32,1.32,0,0,0,194.71,142.16Z" fill="#ff7d09"></path><path d="M223.16,227.5l1.35,19.11-2.39,2.07-2.66-.69s.34-5.06-.59-6.17-2.52,4.38-3.43,4.35-11.73-2.92-11.89-4.25c-.21-1.77,2.22-3.78,6.82-2.67,5,1.2,5.84-4.39,6.62-9.76" fill="#f8997c"></path><path d="M215.39,231.33s4.72,2,12.83-3.18c0,0-2.8-25.34-2.56-29.71s5.12-35.88-.91-42.82-16.82,59.88-16.31,60.25" fill="#a1c3fc"></path><path d="M219.33,242.56l-.45-.74s-1.33-1.23-2.63-.63-1.11,5.14-1.11,5.14l4.51-1.69A4.92,4.92,0,0,0,219.33,242.56Z" fill="#9e005d"></path><path d="M208.45,236.87,208,256l-2.58,1.83-2.58-.94s.82-5,0-6.19-2.93,4.12-3.83,4-11.4-4-11.43-5.36c0-1.78,2.57-3.55,7-2,4.83,1.67,6.23-3.82,7.52-9.09" fill="#f8997c"></path><path d="M203.2,251.5l-.38-.78s-1.2-1.35-2.56-.87-1.6,5-1.6,5l4.65-1.25A4.92,4.92,0,0,0,203.2,251.5Z" fill="#9e005d"></path><path d="M206.88,163.09s-8,21.61-9.84,31-1.89,44.46-1.24,45.41,8.44,2.6,13.69,2.52S214,200.5,214,200.5s14.31-36.26,10.49-40.25S206.88,163.09,206.88,163.09Z" fill="#a1c3fc"></path><path d="M206.55,163.49c7.27,2.3,16.51-.46,21-6.7-.84-10.23-2.6-27.14-5.22-29.67-3.8-3.66-12,1.55-15,6.66-1.54,2.64-4.43,12-4.43,12l-11.2-6.38-3.4,8s7.67,14.47,18,11.17Z" fill="#f8997c"></path><path d="M213.56,144.73a.43.43,0,0,0-.86,0c0,3.25-.1,6.72-1.67,9.66a8.1,8.1,0,0,1-6.43,4.55c-.55,0-.55.88,0,.86a8.87,8.87,0,0,0,7-4.66C213.41,152,213.58,148.24,213.56,144.73Z" fill="#fff"></path><path d="M209.64,108.52c-.59.13-1.54,1.06-3,4.4s2,7.6,3.45,8.49,3.62,4.37,3.62,4.37,5.43,1.32,9.08-5.34S218.45,106.6,209.64,108.52Z" fill="#ffb468"></path><path d="M208.11,112.23s-2.74,11.12,1.29,13.66,9.47-4.2,10-6.9S217,110.47,208.11,112.23Z" fill="#ff7d09"></path><path d="M208.11,112.23s-.67,7.26,3.08,8.86S215,125,215,125s6.88-3.68,7.6-6.93S213.37,109.32,208.11,112.23Z" fill="#ffb468"></path><path d="M220.74,121c-1.37,10.89,1.38,24.83-3.15,35.05-.28.63-.88,3.46-1.34,3.46l11-6c4.4-2.73,7.61-4.49,6-11.4s-10.43-21.64-10.43-21.64Z" fill="#ffb468"></path><path d="M204,140.37a83.91,83.91,0,0,0-1.63,8.76c-.07.55.79.54.86,0a81.78,81.78,0,0,1,1.6-8.53C205,140.06,204.12,139.83,204,140.37Z" fill="#fff"></path><path d="M219.45,125.88l-1-2.21a48.73,48.73,0,0,1-6.29,2.7c-2.58.79-1.86,3.77-1.86,3.77S216.28,130.15,219.45,125.88Z" fill="#5fad00"></path><path d="M224.41,169.69l-6.16,17.24c-1.95,5.45-4.26,10.89-4.95,16.68-.71,6-.56,12.1-.73,18.1l-.55,19a.5.5,0,0,0,1,0l.52-18c.17-6,.05-12.16.66-18.17s3-11.67,5-17.33L225.38,170C225.59,169.35,224.63,169.09,224.41,169.69Z" fill="#34323d"></path><path d="M105.8,39.47V71.3a4.48,4.48,0,0,0,6.62,3.93l42.8-23.33A4.48,4.48,0,0,0,157.56,48V14.76a4.48,4.48,0,0,0-6.72-3.88L108,35.6A4.48,4.48,0,0,0,105.8,39.47Z" fill="#f8997c"></path><path d="M37.24,141.7v31.82a4.48,4.48,0,0,0,6.62,3.93l42.8-23.33A4.48,4.48,0,0,0,89,150.19V117a4.48,4.48,0,0,0-6.72-3.88l-42.8,24.71A4.48,4.48,0,0,0,37.24,141.7Z" fill="#5fad00"></path><ellipse cx="80.88" cy="136.82" rx="3.42" ry="2.28" transform="translate(-71.87 180.72) rotate(-75.45)" fill="#274463"></ellipse><polyline points="81.78 136.82 110.2 122.25 110.2 131.46" fill="none" stroke="#2e3192" stroke-miterlimit="10"></polyline><ellipse cx="151.38" cy="35.65" rx="3.42" ry="2.28" transform="translate(78.84 173.22) rotate(-75.45)" fill="#274463"></ellipse><polyline points="152.28 35.65 180.71 21.09 180.71 75.78" fill="none" stroke="#2e3192" stroke-miterlimit="10"></polyline></svg>