<svg xmlns="http://www.w3.org/2000/svg" xmlns:xlink="http://www.w3.org/1999/xlink" viewBox="0 0 400 300" width="406" height="306" class="illustration styles_illustrationTablet__1DWOa"><defs><linearGradient id="linear-gradient" x1="185.94" y1="210.72" x2="310.74" y2="100.75" gradientUnits="userSpaceOnUse"><stop offset="0" stop-color="#9999ef"></stop><stop offset="1" stop-color="#644269"></stop></linearGradient><linearGradient id="linear-gradient-2" x1="288.33" y1="219.31" x2="316.58" y2="194.41" xlink:href="#linear-gradient"></linearGradient><linearGradient id="linear-gradient-3" x1="106.33" y1="228.84" x2="134.58" y2="203.95" xlink:href="#linear-gradient"></linearGradient><linearGradient id="linear-gradient-4" x1="188.25" y1="182.38" x2="234.59" y2="141.55" gradientUnits="userSpaceOnUse"><stop offset="0.01" stop-color="#ffc2a4"></stop><stop offset="1" stop-color="#dd6f31"></stop></linearGradient></defs><title>PP</title><g style="isolation: isolate;"><g id="Layer_2" data-name="Layer 2"><path d="M194.28,287.39,14.56,181.17C8.84,178,3.93,172.68,9.51,169.22l180.37-104c2.71-1.68,6.82-2.78,9.57-1.18L388.11,173.58c5.72,3.32,6.75,12.6,1,15.93L218,287.22A23.9,23.9,0,0,1,194.28,287.39Z" fill="#9999ef"></path><path d="M234.37,201.8a74.17,74.17,0,0,0,5.77-6.77c5.1-6.8,8.87-14.48,13.1-21.85a108.23,108.23,0,0,1,7-10.86,10.81,10.81,0,0,0,2.28-4.15,10,10,0,0,0-.72-5q-4.49-13.78-9.52-27.39c-3.45,1.26-6.3,3.73-9,6.18-19.65,17.54-38,36.43-57.19,54.5a159.83,159.83,0,0,1-14.08,12.21,117.62,117.62,0,0,1-15.42,9.52c-4.43,2.34-12.11,4.34-15.4,7.88,2.32,2.89,36.39,28.15,37.13,27.49C195.69,228.07,218.42,218.45,234.37,201.8Z" fill="url(#linear-gradient)"></path><path d="M310,210.46c-4.23-2.8-8-6.18-12.3-8.91L273,214.65l19.37,12.71,22.94-13.68Q312.59,212.18,310,210.46Z" fill="url(#linear-gradient-2)"></path><path d="M128,220c-4.23-2.8-8-6.18-12.3-8.91L91,224.19l19.37,12.71,22.94-13.68Q130.59,221.71,128,220Z" fill="url(#linear-gradient-3)"></path><path d="M295.9,108.2C286,90.39,274,95.2,274,95.2c-1.2-.24-21.42,13.48-27,15.65s-21.9-1-34.42,3.37-28.88,15.65-33.46,17.57-15.89,6-15.89,11.31,5.54,6.26,13.24,4.57S203,135.88,203,135.88s-3.61,8.91-6.26,14.2S178,172.7,176.51,173.67,158,194.61,158,194.61a44.09,44.09,0,0,0-9.92,3.86,2,2,0,0,1-.37.66c-1.82,2.2-3.71,4.93-2.16,7.82.82,1.54,2.47,2,3.44,3.43a1.6,1.6,0,0,1-.3,2.27,5,5,0,0,0,2.81,2.42c3.85,1.44,11.55-6.86,11.55-6.86s8.91-1.08,14.44-3c0,0,22.53,4.63,31.89-4,0,0,24.21-4.92,35.57-18.13C261,164.3,265.81,155.86,267,153a17.72,17.72,0,0,0,1-6.74L298.3,134S305.76,126,295.9,108.2Z" fill="#ffc794"></path><path d="M221.93,182.8a24.2,24.2,0,0,0-3.09,3.73h0a57.75,57.75,0,0,0-12.48-.16c-3.05.31-6.78.52-9.25,2.57-3.24,2.7-2.26,9.33,2.06,10.37.83.2,1.19-1.08.35-1.28-3.78-.9-3.56-6.8-.92-8.53,2.23-1.45,5.85-1.62,8.37-1.85A58.37,58.37,0,0,1,220,188c.74.1.82-.91.27-1.23a22.56,22.56,0,0,1,2.55-3C223.48,183.14,222.54,182.2,221.93,182.8Z" fill="#704533"></path><path d="M207.74,180.83c-6.28-2.58-13.22-5.73-15.05-12.92a.66.66,0,0,0-1.28.35c2,7.69,9.24,11.08,16,13.85C208.17,182.44,208.52,181.15,207.74,180.83Z" fill="#704533"></path><path d="M200.29,182.92l-.21.06a38.63,38.63,0,0,0-12.65,6.65,7.84,7.84,0,0,1-2.22,1.42,8.28,8.28,0,0,1-1.93.31,25.11,25.11,0,0,0-7.06,1.72c-2.08.84-4.2,2.16-4.88,4.29-.9,2.86,1.31,5.91,4,7.17q-7.13,1.74-14.41,2.78-3.63.52-7.29.85c-3,.28-8.33,1.26-7.92-3.63a7.27,7.27,0,0,1,2.35-4.34c4.5-4.51,11.24-5.71,17.53-6.7L179,191.4a9,9,0,0,0,2-.49,8.53,8.53,0,0,0,1.77-1.08,76.47,76.47,0,0,0,13.1-12.22c.22-.26.46-.6.33-.92-.24-.62-1.17-.16-1.6.34A79.19,79.19,0,0,1,183.22,188a9.79,9.79,0,0,1-2.21,1.41,10.43,10.43,0,0,1-2.27.57l-15.89,2.7c-3.68.63-7.41,1.27-10.76,2.92a13.67,13.67,0,0,0-6.8,6.92,4.74,4.74,0,0,0-.06,4.35,5.41,5.41,0,0,0,3.66,2.92,4.7,4.7,0,0,0,.46,4.6,4.83,4.83,0,0,0,5.13,1.24,12.1,12.1,0,0,0,4.61-3.1,21.58,21.58,0,0,1,4.3-3.58,18,18,0,0,1,5.23-1.61l6.08-1.22a19.59,19.59,0,0,1,3.08-.45,24.41,24.41,0,0,1,3.87.31c6,.73,12.16.35,18.23,0a1,1,0,0,0,.71-.24.67.67,0,0,0-.28-1,2,2,0,0,0-1.11-.13,123.29,123.29,0,0,1-17.25.11,13.46,13.46,0,0,1-6.37-1.54c-1.87-1.17-3.16-3.57-2.37-5.63.7-1.81,2.67-2.75,4.51-3.38a39.23,39.23,0,0,1,15.78-2c.42,0,.95,0,1.14-.35.34-.65-.72-1.1-1.45-1.08l-5.21.1a37.88,37.88,0,0,1,12-6.43,2,2,0,0,0,.93-.49.66.66,0,0,0,0-.94A.74.74,0,0,0,200.29,182.92Zm-42.77,29.55a11.86,11.86,0,0,1-3.44,2.21,3.34,3.34,0,0,1-4.19-4.69.5.5,0,0,0,0-.14q6.16-.42,12.24-1.34C160.64,209.87,159.11,211.2,157.52,212.47Z" fill="#704533"></path><path d="M239.31,171.25a45.54,45.54,0,0,0-36.4-4.89.66.66,0,0,0,.35,1.28,44.17,44.17,0,0,1,35.38,4.75C239.37,172.84,240,171.69,239.31,171.25Z" fill="#704533"></path><path d="M232.38,148.75c-6.76,1-13.43,5.23-20.32,2.69-.8-.3-1.15,1-.35,1.28,7.17,2.65,14-1.61,21-2.69C233.58,149.9,233.22,148.62,232.38,148.75Z" fill="#704533"></path><path d="M268,145.43c-.22,7.9-5.88,14.76-10.43,20.79a210.11,210.11,0,0,1-13.89,17.17,50.54,50.54,0,0,1-16.77,12.22c-7.36,3.21-15.65,5.89-23.63,3.51a.5.5,0,0,0-.27,1,22.62,22.62,0,0,0,5.14.89,10.53,10.53,0,0,1-6.39,3.34c-.64,0-.64,1,0,1a11.48,11.48,0,0,0,7.56-4.15.52.52,0,0,0,.07-.14c5.55.05,11.07-1.68,16.23-3.8a51.75,51.75,0,0,0,18.18-12.52,201.5,201.5,0,0,0,14.9-18.35c4.59-6.12,10.06-12.93,10.28-20.92A.5.5,0,0,0,268,145.43Z" fill="#704533"></path><polygon points="134.46 151.02 133.97 223.09 128.05 226.32 128.05 149.89 134.46 151.02" fill="#68e1fd"></polygon><polyline points="119.14 117.39 126.73 113.11 152.81 154.86 146.2 159.43" fill="#68e1fd"></polyline><g opacity="0.5"><polygon points="134.46 151.02 133.97 223.09 128.05 226.32 128.05 149.89 134.46 151.02" fill="#0da6bf" opacity="0.5"></polygon><polyline points="119.14 117.39 126.73 113.11 152.81 154.86 146.2 159.43" fill="#0da6bf" opacity="0.5"></polyline></g><polygon points="92.08 129.04 119.14 117.39 146.2 159.43 128.05 149.89 128.05 226.32 109.49 215.45 108.56 138.91 92.08 129.04 92.08 129.04" fill="#68e1fd"></polygon><polygon points="126.26 54.17 125.97 96.85 122.46 98.77 122.46 53.5 126.26 54.17" fill="#68e1fd"></polygon><polyline points="117.19 34.25 121.68 31.72 137.12 56.44 133.21 59.15" fill="#68e1fd"></polyline><g opacity="0.5"><polygon points="126.26 54.17 125.97 96.85 122.46 98.77 122.46 53.5 126.26 54.17" fill="#0da6bf" opacity="0.5"></polygon><polyline points="117.19 34.25 121.68 31.72 137.12 56.44 133.21 59.15" fill="#0da6bf" opacity="0.5"></polyline></g><polygon points="101.16 41.15 117.19 34.25 133.21 59.15 122.46 53.5 122.46 98.77 111.47 92.33 110.92 47 101.16 41.15 101.16 41.15" fill="#68e1fd"></polygon><polygon points="317.14 140.74 316.64 212.81 310.72 216.03 310.72 139.6 317.14 140.74" fill="#68e1fd"></polygon><polyline points="301.81 107.1 309.41 102.83 335.48 144.57 328.88 149.14" fill="#68e1fd"></polyline><g opacity="0.5"><polygon points="317.14 140.74 316.64 212.81 310.72 216.03 310.72 139.6 317.14 140.74" fill="#0da6bf" opacity="0.5"></polygon><polyline points="301.81 107.1 309.41 102.83 335.48 144.57 328.88 149.14" fill="#0da6bf" opacity="0.5"></polyline></g><polygon points="274.76 118.76 301.81 107.1 328.88 149.14 310.72 139.6 310.72 216.03 292.16 205.17 291.24 128.63 274.76 118.76 274.76 118.76" fill="#68e1fd"></polygon><path d="M81.55,80.4,61.84,76.66s-10.93,21.87-.41,34l21.72,1.92S69.32,100.14,81.55,80.4Z" fill="#68e1fd"></path><path d="M75.1,82.76q-5.82-1.41-11.75-2.26c-.63-.09-.9.87-.27,1q5.93.86,11.75,2.26C75.46,83.87,75.72,82.91,75.1,82.76Z" fill="#fff"></path><path d="M70.8,84.33a71.54,71.54,0,0,1-7.56-1.25c-.63-.14-.9.83-.27,1a74.07,74.07,0,0,0,7.83,1.28C71.44,85.4,71.43,84.4,70.8,84.33Z" fill="#fff"></path><path d="M73.51,89.43,60.57,87c-.63-.12-.9.85-.27,1l12.94,2.4C73.87,90.51,74.14,89.55,73.51,89.43Z" fill="#fff"></path><path d="M66.6,90.13l-6.4-.74c-.64-.07-.63.93,0,1l6.4.74C67.24,91.2,67.24,90.2,66.6,90.13Z" fill="#fff"></path><path d="M72.21,95.12q-6.52-1.05-13.1-1.55c-.64,0-.64,1,0,1q6.45.48,12.83,1.51C72.58,96.19,72.85,95.22,72.21,95.12Z" fill="#fff"></path><path d="M64,96.74a32.92,32.92,0,0,1-4.56-.5c-.63-.11-.9.85-.27,1a34.86,34.86,0,0,0,4.82.54C64.65,97.77,64.65,96.77,64,96.74Z" fill="#fff"></path><path d="M72.69,100.78q-5.85-.19-11.68-.64c-.64,0-.64,1,0,1q5.84.45,11.68.64C73.34,101.8,73.34,100.8,72.69,100.78Z" fill="#fff"></path><path d="M67.3,102.82q-2.95-.06-5.89,0c-.64,0-.64,1,0,1q2.95-.1,5.89,0A.5.5,0,0,0,67.3,102.82Z" fill="#fff"></path><path d="M74.88,106.39q-6.27-.76-12.57-1c-.64,0-.64,1,0,1q6.3.28,12.57,1C75.52,107.47,75.51,106.47,74.88,106.39Z" fill="#fff"></path><path d="M279.86,34.61l19.71-3.73s10.93,21.87.41,34l-21.72,1.92S292.09,54.36,279.86,34.61Z" fill="#68e1fd"></path><path d="M286.32,37q5.82-1.41,11.75-2.26c.63-.09.9.87.27,1q-5.93.86-11.75,2.26C286,38.09,285.69,37.12,286.32,37Z" fill="#fff"></path><path d="M290.62,38.55a71.54,71.54,0,0,0,7.56-1.25c.63-.14.9.83.27,1a74.07,74.07,0,0,1-7.83,1.28C290,39.62,290,38.62,290.62,38.55Z" fill="#fff"></path><path d="M287.91,43.65l12.94-2.4c.63-.12.9.85.27,1l-12.94,2.4C287.54,44.73,287.27,43.77,287.91,43.65Z" fill="#fff"></path><path d="M294.81,44.35l6.4-.74c.64-.07.63.93,0,1l-6.4.74C294.17,45.42,294.18,44.42,294.81,44.35Z" fill="#fff"></path><path d="M289.2,49.34q6.52-1.05,13.1-1.55c.64,0,.64,1,0,1q-6.45.48-12.83,1.51C288.84,50.4,288.57,49.44,289.2,49.34Z" fill="#fff"></path><path d="M297.41,51a32.92,32.92,0,0,0,4.56-.5c.63-.11.9.85.27,1a34.86,34.86,0,0,1-4.82.54C296.77,52,296.77,51,297.41,51Z" fill="#fff"></path><path d="M288.72,55q5.85-.19,11.68-.64c.64,0,.64,1,0,1q-5.84.45-11.68.64C288.08,56,288.08,55,288.72,55Z" fill="#fff"></path><path d="M294.11,57q2.95-.06,5.89,0c.64,0,.64,1,0,1q-2.95-.1-5.89,0A.5.5,0,0,1,294.11,57Z" fill="#fff"></path><path d="M286.54,60.61q6.27-.76,12.57-1c.64,0,.64,1,0,1q-6.3.28-12.57,1C285.9,61.69,285.91,60.68,286.54,60.61Z" fill="#fff"></path><path d="M197.19,50.23l-4.72-4.54a2.6,2.6,0,1,0-3.68,3.68l4.72,4.54a2.6,2.6,0,1,0,3.68-3.68Z" fill="#fbb03b"></path><path d="M202.34,36.81v8.82c0,3.34,5.2,3.35,5.2,0V36.81C207.54,33.47,202.34,33.46,202.34,36.81Z" fill="#fbb03b"></path><path d="M219.73,46.55a2.65,2.65,0,0,0-3.68,0l-3.86,3.68a2.62,2.62,0,0,0,0,3.68,2.65,2.65,0,0,0,3.68,0l3.86-3.68A2.62,2.62,0,0,0,219.73,46.55Z" fill="#fbb03b"></path><path d="M182.27,172.49s12.68-19.37,29-16.17,13.74,11.17,4.93,18.48S194.06,189.49,181,190.91,182.27,172.49,182.27,172.49Z" opacity="0.56" fill="url(#linear-gradient-4)" style="mix-blend-mode: multiply;"></path><path d="M219.14,136.23c2.59-.07,8-6.57,9.69-8.51a44.69,44.69,0,0,0,7.33-11c10.46-22.64-3.55-53-29.63-54.83a48.27,48.27,0,0,0-5.55,0c-17.11.79-30.16,17.85-31.74,33.94a47.69,47.69,0,0,0,4.13,23.69,35.84,35.84,0,0,0,6.49,9.58c1.86,2,7.42,8,10.28,7.91Z" fill="#fbb03b"></path><path d="M207,61.94c18.08,18.44,16.63,49.29,8.61,74.38l3.51-.09c2.59-.07,8-6.57,9.69-8.51a44.69,44.69,0,0,0,7.33-11C246.55,94.21,232.78,64.08,207,61.94Z" fill="#e29127"></path><path d="M210.86,137.93l2.52-34.45c.32-4.33-.24-9.34,2.41-13.18,4.76-6.89,13,.66,8.48,6.34s-15.85,5.31-22.35,5c-18-.77-21.28-9.28-17.35-12.56,2.26-1.89,5.48-1.16,7.78.24,3.46,2.11,3.33,6.28,3.65,9.83s.62,6.84.92,10.27q1,11,1.93,21.93l.57,6.55" fill="none" stroke="#f2f2f2" stroke-miterlimit="10" stroke-width="3"></path><rect x="182.27" y="135.52" width="44.11" height="10.4" rx="5.2" ry="5.2" transform="translate(408.65 281.43) rotate(180)" fill="#ccc"></rect><rect x="182.27" y="145.92" width="44.11" height="10.4" rx="5.2" ry="5.2" transform="translate(408.65 302.24) rotate(-180)" fill="#ccc"></rect><path d="M221.18,135.52h-5.37c1.2,3.42-.86,9.23-3.77,11.57a60.66,60.66,0,0,1-25.19-1.55.58.58,0,0,0-.31,1.11,61.92,61.92,0,0,0,33.73-.17.53.53,0,0,0,.4-.48l.5-.08a5.2,5.2,0,0,0,0-10.4Z" fill="#b2afab"></path><path d="M184.78,155.57s8.26,4.8,21,4.52,18.11-4.52,18.11-4.52" fill="#ccc"></path><path d="M221.18,145.92h-7.46c2.81,2.61.39,10.39-1.63,13.66l1.53-.13c2.87,0,12.63-2.4,12.76-8.33A5.16,5.16,0,0,0,221.18,145.92Z" fill="#b2afab"></path></g></g></svg>