<svg id="Layer_2" data-name="Layer 2" xmlns="http://www.w3.org/2000/svg" xmlns:xlink="http://www.w3.org/1999/xlink" viewBox="0 0 400 300" width="406" height="306" class="illustration styles_illustrationTablet__1DWOa"><defs><linearGradient id="linear-gradient" x1="212.6" y1="276.25" x2="267.92" y2="212.85" gradientUnits="userSpaceOnUse"><stop offset="0" stop-color="#ff9494"></stop><stop offset="1" stop-color="#ff4b28"></stop></linearGradient><linearGradient id="linear-gradient-2" x1="275.49" y1="229.1" x2="334.28" y2="161.73" xlink:href="#linear-gradient"></linearGradient></defs><title>PP</title><path d="M196.24,288.6,23.74,186.65c-5.49-3.08-10.2-8.15-4.85-11.46L192,75.41c2.6-1.61,6.54-2.66,9.18-1.13L382.28,179.37c5.49,3.19,6.48,12.1,1,15.29L219,288.44A22.94,22.94,0,0,1,196.24,288.6Z" fill="#ff9494"></path><polyline points="272.94 247.72 211.45 282.8 181.92 270.8 224.88 245.37" fill="url(#linear-gradient)"></polyline><polyline points="342.07 200.93 277.81 238.54 240.42 221.16 305.65 184.3" fill="url(#linear-gradient-2)"></polyline><path d="M160,208.4c-36.4,0-64.91-13.54-64.91-30.83s28.51-30.84,64.91-30.84,64.91,13.54,64.91,30.84S196.37,208.4,160,208.4Zm0-57.67c-33,0-60.91,12.29-60.91,26.84S127,204.4,160,204.4s60.91-12.29,60.91-26.83S193,150.73,160,150.73Z" fill="#68e1fd"></path><path d="M144.33,100.77,141,128.89l10.44-9.69.19,19.74s9.29-8.08,9.38-6.85,9.06,34.33,9.06,34.33l3.06-34L183,137.5l-4.64-16.13,12.28-.89L180.28,98.66" fill="#ffe41f"></path><path d="M150.11,97.57,148,115.19l6.54-6.07.12,12.37s5.82-5.06,5.88-4.29,5.68,21.51,5.68,21.51l1.92-21.28,6.17,3.17-2.91-10.1,7.69-.56-6.49-13.67" fill="#f9893d"></path><path d="M149.8,89.26c-2.26.11-7.35-5.23-9-6.81a39.08,39.08,0,0,1-7.08-9.14c-10.55-19.09-.25-46.48,22.39-49.7a42.22,42.22,0,0,1,4.83-.39c15-.39,27.44,13.67,29.83,27.61a41.71,41.71,0,0,1-2.11,20.93,31.35,31.35,0,0,1-5.05,8.77c-1.5,1.83-6,7.44-8.47,7.55Z" fill="#ffc136"></path><path d="M190.77,50.42a36.1,36.1,0,0,0-14.3-22.62,37.87,37.87,0,0,1,3.6,11.88C181.89,53,178,66.23,171.93,78a40.7,40.7,0,0,1-7.31,10.14l10.52-.49c2.5-.12,7-5.72,8.47-7.55a31.35,31.35,0,0,0,5.05-8.77A41.71,41.71,0,0,0,190.77,50.42Z" fill="#eda514"></path><path d="M158.57,89.82,153.62,56c-.52-3.53-.49-5.77-3-8.42-4.23-4.41-10.15-3.12-10.6,3.56s7.92,8.45,13.07,8.78c7.62.48,19.21-.08,24.81-6.26,2.77-3,3-8.1-1.51-9.65-5-1.73-9.95,2.75-10.13,7.54-.47,12.65-.45,25.33-.63,38a1.5,1.5,0,0,0,3,0q.17-11.33.35-22.65c.07-4.57.15-9.15.25-13.72a12.09,12.09,0,0,1,.08-3c.89-2.84,7.89-5.25,7.68-1-.32,6.61-14.46,7.53-18.61,7.74-3.51.18-18.2.28-15.06-6.9,2.38-5.44,6.58.78,6.93,3.28.55,4,1.16,7.94,1.74,11.91l3.72,25.44c.28,1.9,3.17,1.09,2.89-.8Z" fill="#f2f2f2"></path><path d="M181.37,82.55c-5.14,3.4-10.89,4.62-17.36,5.09s-13.88,1-19.92-1.82a2,2,0,0,0-.25,1.06l.36,5a2,2,0,0,0,2.19,1.89l34.4-2.49a2,2,0,0,0,1.89-2.19l-.36-5A2,2,0,0,0,181.37,82.55Z" fill="#ccc"></path><rect x="144.63" y="92.5" width="38.58" height="9.1" rx="1.19" ry="1.19" transform="translate(-6.57 12.07) rotate(-4.13)" fill="#ccc"></rect><path d="M147,102.84s2.24,6.44,17.66,5.08,18.64-9.75,18.64-9.75" fill="#ccc"></path><path d="M180.95,88a40.36,40.36,0,0,1-35.32,4.55c-1-.35-1.8,1.19-.76,1.54a42.16,42.16,0,0,0,37.05-4.67C182.85,88.79,181.87,87.37,180.95,88Z" fill="#afa7a1"></path><path d="M180.06,97.09a37.77,37.77,0,0,1-32.94,3.77c-1-.37-1.8,1.18-.76,1.54A39.6,39.6,0,0,0,181,98.51C182,97.91,181,96.49,180.06,97.09Z" fill="#afa7a1"></path><path d="M215.53,251.94c1.42-.44,7.51-.09,7.51-.09s.45-8.22.31-8.44h6.07s1.84,12,2,13.22c.23,2.2-2.42,3.18-3,3.15a10.79,10.79,0,0,1-1.31-.38,18.23,18.23,0,0,0,0-3.48c-.08-.53-.24-.88-.76-1-1-.26-2.61.43-3.54.7-1.1.33-2.17.71-3.27,1-2.59-1-4.8-2.07-5-2.56C213.89,252.85,213.35,252.61,215.53,251.94Z" fill="#ffd9b3"></path><path d="M213.48,252.55a1.42,1.42,0,0,1,.13-.18c.43-.51,1.69-.6,2.27-.68a29.63,29.63,0,0,1,7.16.17s-5.74-.18-5.85.86A2.71,2.71,0,0,0,218,255c2.59,1.85,6-.85,8.23-2.08l4.08-2.29.64,3.45s.74,4.27.5,4.78-2.64,2.12-3.2,1.91-2.33-1-2.33-1l-.11-4.24s-3.37,1.9-5.09,1.64C219.44,256.92,212.22,254.67,213.48,252.55Z" fill="#56403d"></path><path d="M263.29,244.3c.94-.44,2.33-.84,2.92-1.78s.37-2.33.29-3.38-.19-2.14-.33-3.21a.53.53,0,0,0,.16-.41,19.35,19.35,0,0,0-.3-2.61l4.35-.89s2.74,7.3,2.7,8.17-3.61,7-5.69,7.61-8.18-.62-8.75-1.39l0-.07C260.18,245.7,261.75,245,263.29,244.3Z" fill="#ffd9b3"></path><path d="M269,240.73s-1.54,7.42-2.33,8-9.9-1.34-8.76-3.16c.73-1.16,6.06-1.71,6.51-1.89,0,0-2.7,1.21-2.66,1.66s3.74,1.71,3.89,1.36,3.33-7,3.33-7L272.5,238l3.66,6.29-2.41,1.34s-.56,2.09-.82,2.11-2.7-3.46-2.7-3.46a9.8,9.8,0,0,1-.6,2.71c-.33.29-3,3-4.54,1.31l2.18-3" fill="#56403d"></path><path d="M243.87,171.55c-2.81-9.19-2.88-7.56-4.72-15.15l18.4-4.82c9.38,14.05,18.09,81.94,18.09,81.94s-9.08,7.31-16.94,5.07c0,0-10.63-56-10.65-56.05C246.51,178.7,246.45,178,243.87,171.55Z" fill="#68e1fd"></path><path d="M246.79,179.22s5-.79,7.71-3l1,42.07Z" opacity="0.2"></path><path d="M248.13,127.6s10.18-22.93,11.34-24.4-1.4-8.92.21-8.83,3.51,3.8,3.51,3.8,7-5.06,9.5-3.49-7.83,12-7.83,12l-8.58,28.41" fill="#ffd9b3"></path><path d="M230.31,122.93s-23.18-9.61-25-9.87-5.13-7.43-6.23-6.26.07,5.17.07,5.17-8.56,1.15-9.29,4,14,3.33,14,3.33L229.57,134" fill="#ffd9b3"></path><polyline points="247.8 120.47 255.5 113.66 260.61 130.39 254.2 139.79" fill="#4444a5"></polyline><path d="M235.75,124.54h.71c3.7,0,7.78-5,7.78-5s1.34-11.52,7.89-2.24c4.9,6.93,6.18,26.54,6.52,36-2.63,1.94-6,2.59-9.26,3a39.31,39.31,0,0,1-6.41.31,9.51,9.51,0,0,1-3.79-1l-2.75-15.33A155.35,155.35,0,0,0,235.75,124.54Z" fill="#4444a5"></path><path d="M239.63,107s-6.3,8.83-1.78,12.17,9-.53,9.57-1.62S249.15,107.6,239.63,107Z" fill="#ffd9b3"></path><path d="M239.46,105.49c2.78-1.46,5.86-1.08,8.7,0a12.61,12.61,0,0,1,6.12,4.39,4.27,4.27,0,0,1,2.24-.42,4.44,4.44,0,0,1,4,3.34,3.84,3.84,0,0,1-2.12,4.26,4.85,4.85,0,0,1-3.68-.18l-.05.22c-.42,1.77,1.16,2.92,1.6,4.53a3.59,3.59,0,0,1-.05,2.27c-.28.73-1.17,1.43-1.25,2.19a3.62,3.62,0,0,0,.58,1.71,8,8,0,0,1,.63,1.79c-3.84,1.42-8.3.78-12.06-.56-4-1.43-8-3.94-10.29-7.57a3,3,0,0,1,.89-.92,11.19,11.19,0,0,1,2.28-.82c1.14-.46.31-2.46.49-3.46.31-1.7,1.65-2.24,3.15-2.63,1.08-.28,1.22-.9,1.37-1.95a4,4,0,0,0-.16-2.45,1.34,1.34,0,0,1-.86-.31,7.38,7.38,0,0,0-1.59-1,1.22,1.22,0,0,1-.52-1.61A1,1,0,0,1,239.46,105.49Z" fill="#f9893d"></path><path d="M242.69,109.83a19.39,19.39,0,0,1-4.42-2.29c.06-.15.38-6.15,10.61-2.62s3.48,15.42,3.48,15.42" fill="#f9893d"></path><path d="M240.42,120.34s-15.74-2.15-19.23-1.68l-1,11.87,20.23,11.94" fill="#4444a5"></path><path d="M239.2,155.59s-24.67,83.23-21.54,87.81,19.68,7.68,22.76,4.57,13.78-77.09,13.78-77.09" fill="#68e1fd"></path><ellipse cx="163.27" cy="176.3" rx="8" ry="23.65" transform="translate(-20.03 331.66) rotate(-87.48)" fill="#db7272"></ellipse><polyline points="305.65 111.62 319.47 104.27 352.61 123.41 352.61 195.13 338.95 203.02" fill="#68e1fd"></polyline><polyline points="305.65 111.62 319.47 104.27 352.61 123.41 352.61 195.13 338.95 203.02" opacity="0.2"></polyline><path d="M339,203c-1-.09,0-72.17,0-72.17l-33.31-19.23V184.3Z" fill="#68e1fd"></path><polyline points="305.65 125.18 338.79 143.83 352.61 136.79" fill="none" stroke="#f2f2f2" stroke-miterlimit="10" stroke-width="0.25"></polyline><polyline points="305.65 143.83 338.79 162.49 352.61 155.45" fill="none" stroke="#f2f2f2" stroke-miterlimit="10" stroke-width="0.25"></polyline><polyline points="305.65 160.63 338.79 179.28 352.61 172.24" fill="none" stroke="#f2f2f2" stroke-miterlimit="10" stroke-width="0.25"></polyline><polyline points="305.65 177.57 338.79 196.22 352.61 189.18" fill="none" stroke="#f2f2f2" stroke-miterlimit="10" stroke-width="0.25"></polyline><polygon points="338.95 130.85 352.61 123.41 319.47 104.27 305.65 111.62 338.95 130.85" fill="#68e1fd"></polygon><polygon points="338.95 130.85 352.61 123.41 319.47 104.27 305.65 111.62 338.95 130.85" fill="#fff" opacity="0.49"></polygon><ellipse cx="332.67" cy="133.22" rx="2.01" ry="2.43" transform="translate(-25.67 136.09) rotate(-22.28)" fill="#fff"></ellipse><path d="M309.68,121.43l17.71,9.74c.42.23.8-.41.38-.65l-17.71-9.74c-.42-.23-.8.41-.38.65Z" fill="#f2f2f2"></path><ellipse cx="332.67" cy="149.54" rx="2.01" ry="2.43" transform="translate(-31.86 137.31) rotate(-22.28)" fill="#fff"></ellipse><path d="M309.68,137.75l17.71,9.74c.42.23.8-.41.38-.65l-17.71-9.74c-.42-.23-.8.41-.38.65Z" fill="#f2f2f2"></path><ellipse cx="332.67" cy="167.36" rx="2.01" ry="2.43" transform="translate(-38.62 138.64) rotate(-22.28)" fill="#fff"></ellipse><path d="M309.68,155.57l17.71,9.74c.42.23.8-.41.38-.65l-17.71-9.74c-.42-.23-.8.41-.38.65Z" fill="#f2f2f2"></path><ellipse cx="332.67" cy="183.54" rx="2.01" ry="2.43" transform="translate(-44.75 139.85) rotate(-22.28)" fill="#fff"></ellipse><path d="M309.68,171.75l17.71,9.74c.42.23.8-.41.38-.65l-17.71-9.74c-.42-.23-.8.41-.38.65Z" fill="#f2f2f2"></path><path d="M105.44,39.43S109,54.34,93.24,57.66c0,0,14.08,1.5,13.8,15.39,0,0-1.74-13.23,11.78-15.39C118.83,57.66,105.22,56.24,105.44,39.43Z" fill="#f9ab2f"></path><path d="M97.15,79.5S99.79,90.68,88,93.17c0,0,10.56,1.12,10.35,11.54,0,0-1.31-9.92,8.83-11.54C107.19,93.17,97,92.11,97.15,79.5Z" fill="#f9ab2f"></path><path d="M206.83,43.64s2.63,11.17-9.15,13.67c0,0,10.56,1.12,10.35,11.54,0,0-1.31-9.92,8.83-11.54C216.86,57.31,206.66,56.24,206.83,43.64Z" fill="#f9ab2f"></path></svg>