<svg id="Layer_2" data-name="Layer 2" xmlns="http://www.w3.org/2000/svg" xmlns:xlink="http://www.w3.org/1999/xlink" viewBox="0 0 400 300" width="406" height="306" class="illustration styles_illustrationTablet__1DWOa"><defs><linearGradient id="linear-gradient" x1="229.32" y1="229.04" x2="242.29" y2="216.35" gradientUnits="userSpaceOnUse"><stop offset="0" stop-color="#ff9f9f"></stop><stop offset="1" stop-color="#c1272d"></stop></linearGradient><linearGradient id="linear-gradient-2" x1="161.27" y1="141.06" x2="174.24" y2="128.37" xlink:href="#linear-gradient"></linearGradient><linearGradient id="linear-gradient-3" x1="151.67" y1="234.92" x2="169.46" y2="217.51" xlink:href="#linear-gradient"></linearGradient><linearGradient id="linear-gradient-4" x1="77.49" y1="198.61" x2="90.45" y2="185.92" xlink:href="#linear-gradient"></linearGradient></defs><title>PP</title><path d="M192.76,285.54,13,179.32C7.31,176.11,2.4,170.83,8,167.37l180.37-104c2.71-1.68,6.82-2.78,9.57-1.18L386.58,171.74c5.72,3.32,6.75,12.6,1,15.93L216.45,285.37A23.9,23.9,0,0,1,192.76,285.54Z" fill="#ff9f9f"></path><polygon points="235.02 204.69 207.09 221.54 235.57 238.68 271.35 217.16 235.02 204.69" opacity="0.5" fill="url(#linear-gradient)"></polygon><polygon points="166.97 116.71 139.04 133.56 167.52 150.7 203.3 129.18 166.97 116.71" opacity="0.5" fill="url(#linear-gradient-2)"></polygon><polygon points="31.24 174.81 202.59 274.18 370.18 176.92 198.87 77.88 31.24 174.81" fill="none" stroke="#ffeed9" stroke-miterlimit="10"></polygon><polygon points="159.49 201.53 121.18 224.63 160.24 248.14 209.32 218.62 159.49 201.53" opacity="0.5" fill="url(#linear-gradient-3)"></polygon><polyline points="156.2 55.49 156.2 124.75 194.99 146.95 238.79 121.07 238.79 51.8" fill="#68e1fd"></polyline><polygon points="156.2 55.49 201.22 29.86 238.79 51.8 194.99 77.68 156.2 55.49" fill="#68e1fd"></polygon><polygon points="156.2 55.49 201.22 29.86 238.79 51.8 194.99 77.68 156.2 55.49" fill="#fff" opacity="0.5"></polygon><polygon points="194.99 77.68 194.99 146.95 238.79 121.07 238.79 51.8 194.99 77.68" opacity="0.2"></polygon><polyline points="153.69 149.12 153.69 204.89 192.49 228.57 236.29 202.67 236.29 145.43" fill="#a3e271"></polyline><polygon points="153.69 149.12 198.71 123.49 236.29 145.43 192.49 171.31 153.69 149.12" fill="#bfea98"></polygon><polygon points="192.49 171.31 192.49 228.57 236.29 202.67 236.29 145.43 192.49 171.31" fill="#8ad647"></polygon><polygon points="356.13 112.49 356.13 60.97 293.54 97.83 293.54 150 356.13 112.49" fill="#68e1fd"></polygon><polygon points="109.56 85.79 109.56 39.6 53.46 72.64 53.46 119.41 109.56 85.79" fill="#68e1fd"></polygon><path d="M252.32,213.94l3.79-2.52s-.16-3.6-1.65-4.13S252.32,213.94,252.32,213.94Z" fill="#6b2215"></path><path d="M256.19,191.82s4.84,15.49,5.55,16.31,9.18,7.2,10,8.64-7.28,1.55-10.45,1.19-6.21-1.5-6.47-2.64.19-7.17-.92-6.89-1.6,5.51-1.6,5.51l-2.9-1.23-3.26-21.45" fill="#6b2215"></path><path d="M237.64,219.89l3.79-2.52s-.16-3.6-1.65-4.13S237.64,219.89,237.64,219.89Z" fill="#6b2215"></path><path d="M241.51,197.77s4.84,15.49,5.55,16.31,9.18,7.2,10,8.64-7.28,1.55-10.45,1.19-6.21-1.5-6.47-2.64.19-7.17-.92-6.89-1.6,5.51-1.6,5.51l-2.9-1.23-3.26-21.45" fill="#6b2215"></path><path d="M206.75,126c-1.52,1.29,6.31,17.27,8,26.62s23.78,14.59,23.78,14.59l6.11,38.2a81.19,81.19,0,0,0,16.25-2.33s-6.28-44.48-8.59-49.34-35.44-23.85-35.44-23.85" fill="#2887fd"></path><path d="M201,128.89c-1.52,1.29-6.32,11.81-1.59,25.4,3.12,9,22.69,16.38,22.69,16.38l9.47,36.76s6,3.1,14.18.53c0,0-3.36-41.74-5.67-46.6s-27.23-23-27.23-23" fill="#2887fd"></path><path d="M245.58,205.39s-3.19-41.22-5.46-44.05-13.55-12.59-13.55-12.59,14.25,7.84,15.64,11.84,6,44.1,6,44.1Z" fill="#6d665e"></path><path d="M281.87,105.29a1.52,1.52,0,0,0-2.42-.91,6.21,6.21,0,0,0-1.74,2.54L279,94c.13-1.3-1.61-1.47-2.18-.53a.94.94,0,0,0-.79.84l-.11.62A1.25,1.25,0,0,0,274.24,96c0,.6-.09,1.2-.14,1.82a1,1,0,0,0-1.57.7,34.51,34.51,0,0,1-1.58,6.54,3.26,3.26,0,0,1-1.78,2c-1.06.54-2.16,1-3.24,1.55s-.47,2.12.61,2.16a1.27,1.27,0,0,0,.64,1.86c-1.44.34-.82,2.58.66,2.27,2.62-.56,5.33-1,7.9-1.73,2.38-.7,3.86-2.56,5-4.66C281.22,107.62,282.06,106.32,281.87,105.29Zm-13.81,4.89c.61-.27,1.23-.54,1.82-.85q-.35.34-.74.65Z" fill="#ff7d09"></path><path d="M274.55,103q.17-3.59.47-7.17c0-.5-.75-.5-.79,0q-.28,3.35-.45,6.71Q274.16,102.76,274.55,103Z" fill="#99551d"></path><path d="M276.13,104.16q.61-5.23,1-10.48c0-.5-.75-.5-.79,0q-.41,5.1-1,10.18Z" fill="#99551d"></path><path d="M232.65,127.13v0S232.59,127.17,232.65,127.13Z" fill="#ff7d09"></path><path d="M257.7,129.49c-1.27-.28-2.56-.52-3.85-.72l.07,0c.95-.32,2.15-1.16,1.32-2.3s-2.15-.14-3,.22a29.11,29.11,0,0,1-4,1.29c-.27.07-13.09-.6-13.19-.42-.59-.06,1.7-1.05,1.1-1.11s-3.4.23-3.5.68c0,0,0,0,0,0l.82.14a1.16,1.16,0,0,0,.67,1.77l.17,0a1.22,1.22,0,0,0,.31,1.1l-4-.59c-.16,0,1.74.3,4,.67l.16.09.68.28c-.51.64-.4,1.83.57,2l.72.11a1.2,1.2,0,0,0,.46.2q1.2.26,2.41.48a.9.9,0,0,0,.14.43c1.66,2.74,5,2.11,7.66,2.28.09.71.09,1.66.64,2.14a2.6,2.6,0,0,0,2.08.29,1.86,1.86,0,0,0,.93-.47.86.86,0,0,0,.41.2,2.28,2.28,0,0,0,2.48-1,4.63,4.63,0,0,0,1.79-.38,1.73,1.73,0,0,0,1-1.56,8.61,8.61,0,0,0-.24-3.25l.49.06h0c1.05.16,3.65.71,4.72.49.36-.07.93-.48.89-.85C262.54,130.3,258.86,129.74,257.7,129.49Z" fill="#ff7d09"></path><path d="M249.62,138.31c-.45,0-.82-.06-1.09-.49a3.57,3.57,0,0,1-.32-.82,4.94,4.94,0,0,1-.25-2c0-.46-.67-.45-.71,0a4.92,4.92,0,0,0,0,.69h0a7.94,7.94,0,0,1-4.34-.29,5.58,5.58,0,0,1-3.05-1.63c-.29-.35-.8.15-.5.5a6.22,6.22,0,0,0,3.37,1.81,8.74,8.74,0,0,0,4.65.31,6.39,6.39,0,0,0,.49,1.52,1.85,1.85,0,0,0,1.81,1C250.08,139,250.07,138.34,249.62,138.31Z" fill="#99551d"></path><path d="M251.07,133.86q-.1,1.94-.29,3.87c0,.46.67.45.71,0q.19-1.93.29-3.87C251.8,133.4,251.09,133.4,251.07,133.86Z" fill="#99551d"></path><path d="M254.21,132.95l-.17,4c0,.46.69.46.71,0l.17-4C254.94,132.49,254.23,132.49,254.21,132.95Z" fill="#99551d"></path><path d="M217.15,96.54s-16.22,16.74-19,40.28c0,0,12,4.76,26.77-3.35h0s7.55,3.3,14.81,1.47h0s3.32-7.34,6.79-8.91h0l-14.25-3.18-1.1-5.62,35.12,2.52s7.28-8.07,3.9-14.68h0l-41.34-4.73" fill="#ffb001"></path><path d="M234.2,89.8h0s.55-7-8-6a9.73,9.73,0,0,0-9.18.8,7.61,7.61,0,0,0-2.52,2.63,22.56,22.56,0,0,1-4.5,1.39c-4.66.43-9.66-1.6-14-2.92a34.88,34.88,0,0,0-4.4-1.06,14.25,14.25,0,0,0-3.83-.43,9,9,0,0,0-1.26.13,12.29,12.29,0,0,0-7.85,3.22,9.31,9.31,0,0,0,1.87,14.69c2.75,1.54,6.06,1.81,9.15,1.68a32.09,32.09,0,0,0,9.08-1.71,33.18,33.18,0,0,0,14.11-9.42,11.08,11.08,0,0,0,1.18,6.36c2,3,6.14,3.67,6.14,3.67l13-11a4.34,4.34,0,0,0,3.89-4.09S235.33,89.7,234.2,89.8Z" fill="#ee6300"></path><path d="M224.51,87.41c-2.84.58-4.4,3.28-5,6.44a1.81,1.81,0,0,0-2.81.07,2.48,2.48,0,0,0,.56,2.88,5.83,5.83,0,0,0,2.06,1.47c.33,4,2,7.57,4.44,7.62,5.35.11,8.11-11.65,9.56-12.74C233.76,89.23,232.12,85.86,224.51,87.41Z" fill="#ffe1d7"></path><path d="M214,87.17a1.86,1.86,0,0,0-1,.27c-1.85.68-3.06,3.39-2.89,5.18.1,1,.71,2.2,1.91,2s2-1.4,2.56-2.22a5.53,5.53,0,0,0,1.1-3.09C215.65,88.32,215.16,87.2,214,87.17Z" fill="#ff7d09"></path><path d="M230.72,87.83c-.31,0-2.08-1-3.4,1.44s.51,4.94-1.89,6.16-4.37,1.59-5.9-1.57,3.39-8.69,6.88-8.28,4.31,2.26,4.31,2.26" fill="#ee6300"></path><path d="M223.2,94.86s-6.59-2-8-4.39l-1.65,3.21a27.77,27.77,0,0,0,9.3,5" fill="#00106f"></path><path d="M234.2,93.05a1.1,1.1,0,0,0-1.15-.1,13.19,13.19,0,0,1-3.57,1.28c-1.64.2-6.32-.53-7.11,1.52a5.24,5.24,0,0,0,1.41,5.53c1.4,1.52,8.06-.22,9.82-1.25s2.17-5.8,2.17-5.8Z" fill="#00106f"></path><path d="M235.78,94.23a26.85,26.85,0,0,1-4.58,1.45c-1.79.29-5.16-.14-6,.87a12.45,12.45,0,0,0-1.8,4.22h0s.1,1.11,2.9,1.11a20.77,20.77,0,0,0,7.34-1.85c1-.48,1.58-2.67,1.58-2.67l.59-3.13" fill="#68e1fd"></path><polygon points="322.4 184.98 322.4 153.47 284.12 176.01 284.12 207.92 322.4 184.98" fill="#68e1fd"></polygon><polygon points="83.18 174.26 55.25 191.11 83.73 208.25 119.52 186.73 83.18 174.26" opacity="0.5" fill="url(#linear-gradient-4)"></polygon><polyline points="73.79 138.99 73.79 184.19 99.11 198.68 127.7 181.78 127.7 136.58" fill="#68e1fd"></polyline><polygon points="73.79 138.99 103.17 122.26 127.7 136.58 99.11 153.47 73.79 138.99" fill="#68e1fd"></polygon><polygon points="73.79 138.99 103.17 122.26 127.7 136.58 99.11 153.47 73.79 138.99" fill="#fff" opacity="0.5"></polygon><polygon points="99.11 153.47 99.11 198.68 127.7 181.78 127.7 136.58 99.11 153.47" opacity="0.2"></polygon></svg>