<svg id="Layer_2" data-name="Layer 2" xmlns="http://www.w3.org/2000/svg" viewBox="0 0 400 300" width="406" height="306" class="illustration styles_illustrationTablet__1DWOa"><title>PP</title><path d="M193.6,288.75,13.87,182.54C8.15,179.32,3.24,174,8.82,170.59l180.37-104c2.71-1.68,6.82-2.78,9.57-1.18L387.42,175c5.72,3.32,6.75,12.6,1,15.93L217.29,288.58A23.9,23.9,0,0,1,193.6,288.75Z" fill="#ff9f9f"></path><ellipse cx="202.08" cy="184.25" rx="117.04" ry="55.59" fill="#cbd6fc"></ellipse><ellipse cx="198.57" cy="208" rx="33.24" ry="9.93" fill="#94a7dd"></ellipse><path d="M209.43,194c-.05-3-.12-5.87,0-6s-4.86.51-4.86.51-.06,1-.14,2.26a1.49,1.49,0,0,0-.35.89c-.2,3.21-.5,6.42-.72,9.63a58.16,58.16,0,0,0-.26,9.75c.23,2.33,2,5,4.69,3.41a5.94,5.94,0,0,0,2.53-4.6C210.67,204.68,210,199.18,209.43,194Z" fill="#ee6300"></path><path d="M188.14,190.17s1.13,5.86-1.38,8.47-7,5.59-8.47,7.25,1,2.44,4,2,5.24-3.2,8.2-2.86,4-1.14,4.11-3.77-.38-7,.18-12.13" fill="#ee6300"></path><path d="M182.93,124.9s-1.25,65,.6,66.06,12.94,2.31,15,.84l-2.24-66Z" fill="#81c418"></path><path d="M190.44,125.86s9.78,65.87,11.78,66.73,11,.06,13.34-1.62L204.45,124.9Z" fill="#81c418"></path><path d="M222.9,113.46c1,.48,2,1,3.13,1.39a53.64,53.64,0,0,0,5.69-.15,7.43,7.43,0,0,1,2.39-.18,1,1,0,0,1,1,1.24,2.1,2.1,0,0,1-1.65,1.38c-.62.16-1.25.3-1.88.43a41.1,41.1,0,0,0,5.57,2.18c1.21.4.71,2.33-.5,1.92l-1.3-.44a23,23,0,0,1,2.1,1.37c.82.61.43,2.22-.74,1.82a32.29,32.29,0,0,1-4.58-1.94q1.37,1,2.8,1.85c1.08.67.11,2.4-1,1.73q-2-1.24-3.91-2.64c.3.55.6,1.1.88,1.67.57,1.14-1.13,2.17-1.7,1s-1.14-2.17-1.77-3.21l-.13-.05q-4.76-2.24-9.42-4.68c-1.13-.59-.15-2.32,1-1.73l1.44.74a1.16,1.16,0,0,1,.51-.75,1,1,0,0,1,.75-1.56A1,1,0,0,1,222.9,113.46Z" fill="#ee6300"></path><path d="M231,118.6c-1.12,1.18-2.48,2.36-4.23,2a.28.28,0,0,1,.09-.55c1.55.3,2.72-.79,3.7-1.82C230.85,118,231.28,118.34,231,118.6Z" fill="#6d320b"></path><path d="M232.22,119.81a42,42,0,0,0,4.59,1.52c.26.07.19.48-.07.41a43,43,0,0,1-4.69-1.56C231.8,120.09,232,119.71,232.22,119.81Z" fill="#6d320b"></path><path d="M231.3,121.78a22.41,22.41,0,0,0,5.46,2.37c.26.07.19.49-.07.41a22.8,22.8,0,0,1-5.56-2.41C230.9,122,231.07,121.64,231.3,121.78Z" fill="#6d320b"></path><path d="M229.23,122.84a24.8,24.8,0,0,0,4.15,2.58c.24.12.07.5-.17.38a25.35,25.35,0,0,1-4.24-2.63C228.75,123,229,122.68,229.23,122.84Z" fill="#6d320b"></path><path d="M230.85,102.25c.7-1.88,1.33-3.78,1.95-5.71a39.15,39.15,0,0,0,2.12-8.42c-.5-1.34-2.3-2.37-3.57-2.67-1.6-.38-3.23.3-4.85.27-2.11,0-3.78-.87-5.74-1.43a10.72,10.72,0,0,0-6.16.29,11.46,11.46,0,0,1-10.85-1.75c-1.8-1.43-3.19-2.59-5.46-3.19-3.5-.92-7.12-.27-9.42,2.68-2.08,2.66-2.54,6.15-.32,8.87A8.31,8.31,0,0,0,193,93.65c1.54.44,3,1.35,4.57,1.64l.17,0a35.36,35.36,0,0,1,4.47.6c1.86.55,3.59,1.48,5.42,2.13,2.43.87,4.78.53,7.28.22,3.18-.4,4.86.58,7.33,2.39l.45.31a10.64,10.64,0,0,0,5.78,1.53A14,14,0,0,0,230.85,102.25Z" fill="#ffc285"></path><path d="M171.47,79.09c-.55-1-1.12-2-1.6-3a53.64,53.64,0,0,1-.23-5.68,7.43,7.43,0,0,0,0-2.4,1,1,0,0,0-1.31-.89,2.1,2.1,0,0,0-1.27,1.74c-.12.63-.21,1.26-.3,1.9a41.1,41.1,0,0,1-2.54-5.42c-.48-1.18-2.37-.56-1.88.63l.53,1.27a23,23,0,0,0-1.51-2c-.66-.78-2.24-.28-1.77.86a32.29,32.29,0,0,0,2.25,4.44q-1.06-1.3-2-2.67c-.74-1-2.4.05-1.66,1.09q1.37,1.92,2.89,3.72c-.57-.27-1.14-.53-1.72-.77-1.17-.49-2.09,1.27-.91,1.77s2.24,1,3.32,1.55l.06.12q2.56,4.6,5.3,9.09c.67,1.09,2.32,0,1.66-1.09l-.84-1.38a1.16,1.16,0,0,0,.71-.56,1,1,0,0,0,1.5-.85A1,1,0,0,0,171.47,79.09Z" fill="#ee6300"></path><path d="M165.8,71.32c-1.11,1.2-2.19,2.63-1.73,4.36.09.35.64.22.54-.13-.41-1.52.6-2.77,1.57-3.82C166.42,71.46,166,71.05,165.8,71.32Z" fill="#6d320b"></path><path d="M164.52,70.21a42,42,0,0,1-1.83-4.48c-.09-.25-.5-.16-.41.1a43,43,0,0,0,1.87,4.58C164.26,70.65,164.63,70.45,164.52,70.21Z" fill="#6d320b"></path><path d="M162.61,71.27A22.41,22.41,0,0,1,159.87,66c-.09-.25-.5-.16-.41.1a22.8,22.8,0,0,0,2.77,5.39C162.39,71.69,162.76,71.49,162.61,71.27Z" fill="#6d320b"></path><path d="M161.69,73.4a24.8,24.8,0,0,1-2.85-4c-.13-.23-.51,0-.37.2a25.35,25.35,0,0,0,2.91,4.06C161.56,73.89,161.87,73.6,161.69,73.4Z" fill="#6d320b"></path><path d="M198.4,91.87l-6.78-1.35a22.41,22.41,0,0,1-15.17-6.75,43.66,43.66,0,0,1-6.21-8.12,20.84,20.84,0,0,0-5.42,4.62,25.61,25.61,0,0,0-2.22,2.92C165.56,89.32,173,99.07,182,102.5c0,0,.66,14.55.93,22.4,0,0,8.86,4.48,21.51,0C204.45,124.9,200.69,95.2,198.4,91.87Z" fill="#ffc931"></path><path d="M194.93,91.65s13.11,9.86,33.4,22.44c0,0-1.21,6.77-4.06,9.35,0,0-22.2-7.77-27.93-17.83" fill="#ffc931"></path><path d="M189,85.5s-2.4,6.93,2,10.07,10.42-3.42,8.78-9.59S191.83,79.56,189,85.5Z" fill="#ee6300"></path><path d="M200.4,94.6a2.19,2.19,0,0,1-2-.61,3.31,3.31,0,0,1-.6-2.46,3.2,3.2,0,0,0-1.44-2.84c-1.16-.79-2.62-1-3.67-2-.11-.1-.21-.21-.31-.32a2.87,2.87,0,0,0,.45.34c1.71,1,4.25,1.29,5,1.7s-.47,3.56.95,4.95,4.8-7.29,2.85-9.65-8.39-5.12-11.19-1.2a10.09,10.09,0,0,0,.28,1,5.17,5.17,0,0,0,1.12,2.9c1,1.3,2.56,1.59,3.93,2.38a2.8,2.8,0,0,1,1.56,2.33,6.81,6.81,0,0,0,.26,2.41,2.59,2.59,0,0,0,2.93,1.4C200.8,94.94,200.67,94.54,200.4,94.6Z" fill="#ffc285"></path><path d="M202.43,192q-6.36-29.68-11.27-59.65c-.1-.63-1.07-.36-1,.27q4.91,30,11.27,59.65C201.6,192.92,202.56,192.66,202.43,192Z" fill="#6a9b15"></path><path d="M112.23,122v44.39s24.08,12.91,61.9,9.51v-41S138.11,140.76,112.23,122Z" fill="#68e1fd"></path><path d="M268.87,130.82V170.9s38-10.51,47.48-41.47V88.59S306.86,117.57,268.87,130.82Z" fill="#68e1fd"></path><path d="M87.54,75.41v42.86s3.28-27.58,45-42.26V37.94S96.77,44.84,87.54,75.41Z" fill="#68e1fd"></path><path d="M288.31,38.58v43S267.85,71.73,228,69.54V26S259.72,25.7,288.31,38.58Z" fill="#68e1fd"></path><path d="M222.27,50.47v-3c-6.57-.55-13.3-.85-20.19-.85-24.52,0-47.32,3.6-66.25,9.77v3c18.77-6.17,41.61-9.81,66.25-9.81C209,49.62,215.71,49.92,222.27,50.47Z" fill="#68e1fd"></path><path d="M96.38,153.36c-6.33-6.68-9.86-14.07-9.86-21.85,0-16.86,16.57-31.94,42.48-41.87v-3c-27.64,10.46-45.44,26.69-45.44,44.89,0,9.27,4.63,18,12.82,25.78Z" fill="#68e1fd"></path><path d="M103.21,176.44v3.47c13.39,9.73,32.79,17.38,55.65,21.71v-3C135.6,194.23,116.09,186.38,103.21,176.44Z" fill="#68e1fd"></path><path d="M202.08,150.18a237.13,237.13,0,0,1-36.38-2.76v3a237.09,237.09,0,0,0,36.38,2.76c35,0,66.47-7.34,88.18-19V131C269.05,142.71,237.4,150.18,202.08,150.18Z" fill="#68e1fd"></path><path d="M222.5,196.71v3c26.71-2.24,50.37-8.8,67.77-18.13v-3.18C273.24,187.79,249.48,194.44,222.5,196.71Z" fill="#68e1fd"></path><path d="M297.1,33.23v3.34c12.93,8.73,20.54,19.32,20.54,30.73S310,89.29,297.1,98v3.35c14.76-9.52,23.51-21.32,23.51-34.08S311.85,42.74,297.1,33.23Z" fill="#68e1fd"></path><g opacity="0.43"><path d="M222.27,50.47v-3c-6.57-.55-13.3-.85-20.19-.85-24.52,0-47.32,3.6-66.25,9.77v3c18.77-6.17,41.61-9.81,66.25-9.81C209,49.62,215.71,49.92,222.27,50.47Z" fill="#21366f"></path><path d="M96.38,153.36c-6.33-6.68-9.86-14.07-9.86-21.85,0-16.86,16.57-31.94,42.48-41.87v-3c-27.64,10.46-45.44,26.69-45.44,44.89,0,9.27,4.63,18,12.82,25.78Z" fill="#21366f"></path><path d="M103.21,176.44v3.47c13.39,9.73,32.79,17.38,55.65,21.71v-3C135.6,194.23,116.09,186.38,103.21,176.44Z" fill="#21366f"></path><path d="M202.08,150.18a237.13,237.13,0,0,1-36.38-2.76v3a237.09,237.09,0,0,0,36.38,2.76c35,0,66.47-7.34,88.18-19V131C269.05,142.71,237.4,150.18,202.08,150.18Z" fill="#21366f"></path><path d="M222.5,196.71v3c26.71-2.24,50.37-8.8,67.77-18.13v-3.18C273.24,187.79,249.48,194.44,222.5,196.71Z" fill="#21366f"></path><path d="M297.1,33.23v3.34c12.93,8.73,20.54,19.32,20.54,30.73S310,89.29,297.1,98v3.35c14.76-9.52,23.51-21.32,23.51-34.08S311.85,42.74,297.1,33.23Z" fill="#21366f"></path></g></svg>