<svg xmlns="http://www.w3.org/2000/svg" xmlns:xlink="http://www.w3.org/1999/xlink" viewBox="0 0 400 300" width="406" height="306" class="illustration styles_illustrationTablet__1DWOa"><defs><linearGradient id="linear-gradient" x1="226.75" y1="222.58" x2="196" y2="246.57" gradientUnits="userSpaceOnUse"><stop offset="0" stop-color="gray"></stop><stop offset="1" stop-color="#fff"></stop></linearGradient><linearGradient id="linear-gradient-2" x1="329.77" y1="181.28" x2="292.06" y2="203.81" xlink:href="#linear-gradient"></linearGradient><linearGradient id="linear-gradient-3" x1="66.68" y1="179.52" x2="48.2" y2="189.99" xlink:href="#linear-gradient"></linearGradient></defs><title>PP</title><g style="isolation: isolate;"><g id="Layer_2" data-name="Layer 2"><path d="M196.24,288.6,23.74,186.65c-5.49-3.08-10.2-8.15-4.85-11.46L192,75.41c2.6-1.61,6.54-2.66,9.18-1.13L382.28,179.37c5.49,3.19,6.48,12.1,1,15.29L219,288.44A22.94,22.94,0,0,1,196.24,288.6Z" fill="#ff9494"></path><path d="M205.36,225.46c-11.28,6.58-19.35,11-36.7,20.91,13.13,8,23.31,15.32,24.79,16.19l39-22.89C229.42,238.07,219.41,232.4,205.36,225.46Z" fill="url(#linear-gradient)" style="mix-blend-mode: multiply;"></path><path d="M320.25,167.78c-14.73,8.59-25.26,14.36-47.92,27.3,17.15,10.42,30.44,20,32.37,21.14l50.92-29.89C351.67,184.25,338.59,176.85,320.25,167.78Z" fill="url(#linear-gradient-2)" style="mix-blend-mode: multiply;"></path><polygon points="355.63 186.34 323.48 167.78 305.96 177.72 338.42 196.51 355.63 186.34" fill="#ffb164"></polygon><polyline points="321.85 178.91 321.85 182.63 337.25 191.31 345.71 186.31 345.71 183.06" fill="#dbdbdb"></polyline><polygon points="345.71 183.06 330.27 174.14 321.85 178.91 337.45 187.94 345.71 183.06" fill="#606060"></polygon><polygon points="323.87 102.48 306.01 93.71 306.01 177.87 323.87 167.78 323.87 102.48" fill="#e87f18"></polygon><polygon points="355.63 129.09 323.48 110.53 305.96 120.47 338.42 139.26 355.63 129.09" fill="#ffb164"></polygon><polygon points="334 119.56 343.87 113.84 347.05 115.57 337.18 121.9 334 119.56" fill="#19847e"></polygon><polygon points="337.04 121.1 337.04 133.61 347.05 128.03 347.05 115.57 337.04 121.1" fill="#04aaa8"></polygon><polyline points="337.04 121.1 334 119.56 334 131.93 337.04 133.61" fill="#2252a4"></polyline><polygon points="355.68 102.33 323.53 83.77 306.01 93.71 338.48 112.5 355.68 102.33" fill="#ffb164"></polygon><polygon points="355.68 157.53 323.53 138.97 306.01 148.91 338.48 167.7 355.68 157.53" fill="#ffb164"></polygon><polygon points="338.48 112.5 355.68 102.33 355.63 186.34 338.42 196.51 338.48 112.5" fill="#ff9c28"></polygon><polygon points="308.77 136.42 317.45 131.39 320.25 132.91 311.56 138.48 308.77 136.42" fill="#19847e"></polygon><polygon points="311.44 137.78 311.44 148.78 320.25 143.87 320.25 132.91 311.44 137.78" fill="#04aaa8"></polygon><polyline points="311.44 137.78 308.77 136.42 308.77 147.31 311.44 148.78" fill="#2252a4"></polyline><polygon points="312.05 137.04 321.91 131.33 325.1 133.06 315.22 139.38 312.05 137.04" fill="#19847e"></polygon><polygon points="315.09 138.59 315.09 151.1 325.1 145.51 325.1 133.06 315.09 138.59" fill="#04aaa8"></polygon><polyline points="315.09 138.59 312.05 137.04 312.05 149.42 315.09 151.1" fill="#2252a4"></polyline><path d="M107.44,100.65v77.73a4.44,4.44,0,0,0,6.67,3.84l110.12-64a6.8,6.8,0,0,0,3.38-5.88V37.2a5.64,5.64,0,0,0-8.45-4.88L110.85,94.76A6.8,6.8,0,0,0,107.44,100.65Z" fill="#68e1fd"></path><line x1="126.06" y1="89.17" x2="126.06" y2="172.99" fill="none" stroke="#2e3192" stroke-miterlimit="10"></line><line x1="146.39" y1="76.68" x2="146.39" y2="160.51" fill="none" stroke="#2e3192" stroke-miterlimit="10"></line><line x1="162.72" y1="68.07" x2="162.72" y2="151.9" fill="none" stroke="#2e3192" stroke-miterlimit="10"></line><line x1="183.05" y1="56.13" x2="183.05" y2="139.96" fill="none" stroke="#2e3192" stroke-miterlimit="10"></line><polygon points="114.61 102.85 114.61 110.96 125.78 105.23 125.78 97.22 114.61 102.85" fill="#ff9494"></polygon><polygon points="125.78 97.2 125.78 105.3 136.95 99.57 136.95 91.56 125.78 97.2" fill="#ffb727"></polygon><polygon points="125.78 121.28 125.78 129.39 136.95 123.66 136.95 115.65 125.78 121.28" fill="#ff9494"></polygon><polygon points="136.95 115.62 136.95 123.73 163.09 110.31 162.72 102.63 136.95 115.62" fill="#ffb727"></polygon><polygon points="135.22 146.55 135.22 154.66 146.39 148.93 146.39 140.92 135.22 146.55" fill="#ff9494"></polygon><polygon points="146.39 140.89 146.39 149 157.56 143.27 157.56 135.26 146.39 140.89" fill="#ffb727"></polygon><polygon points="151.55 82.99 151.55 91.1 162.72 85.36 162.72 77.36 151.55 82.99" fill="#ff9494"></polygon><polygon points="162.72 77.33 162.72 85.44 173.89 79.71 173.89 71.7 162.72 77.33" fill="#ffb727"></polygon><polygon points="162.72 133.37 162.72 140.78 172.94 135.54 172.94 128.22 162.72 133.37" fill="#ff9494"></polygon><polygon points="172.94 128.19 172.94 135.61 183.15 130.37 183.15 123.04 172.94 128.19" fill="#ffb727"></polygon><path d="M226.45,219.79s3.22,4.46,3,7.07-4.36,7-5.29,8.87-1.18,2.68,0,4,11.21-7.39,11.44-8.79-1.4-6.76-1.4-6.76l4.45,5.63,3.24-1.91L235,216.36" fill="#ea7554"></path><path d="M225.18,239.92c.27-.27,8.21-3,8.21-3s3.73-3.89,3.63-5.37-1.47-7.36-2.87-7.3-1.55,7.85-1.55,7.85Z" fill="#15156d"></path><path d="M215.73,227.19l-1,11.89s-2.57,1.88-3.2,1.72-2.52-.65-2.54-1,.91-8.4.65-8.61-4.2,6.19-5.44,6.32-10.66-5.35-9.75-7.43,5.46-1,7.71-1,5.35-1.31,7-5.16" fill="#ea7554"></path><path d="M209.76,195,204,225.46s3.32,4.34,15.21,3.8l8.84-21.61" fill="#938f05"></path><path d="M207.22,147.17s-8.87,12.94-6.14,33.9c2.42,18.57,21,40.46,21,40.46s5.55,2.45,17.09-8.48l-12.75-20.26s12.42-28.77-2.24-47.05" fill="#938f05"></path><g opacity="0.55"><path d="M173.77,131.79c-4.53-.38-7.59-6.48-7-13.88s4.67-12.9,9.2-12.51,7.59,6.48,7,13.88S178.3,132.17,173.77,131.79Zm2-23.94c-3-.26-6,4.44-6.53,10.26s1.67,11,4.72,11.21,6-4.44,6.53-10.26S178.84,108.11,175.79,107.85Z" fill="#f2f2f2"></path></g><path d="M182.22,122.34a1.29,1.29,0,0,0-2.59,0c0,.87,0,1.74,0,2.61-.1-.19-.2-.38-.29-.57a37.36,37.36,0,0,1-2.26-7.48c-.32-1.67-2.71-.92-2.5.69a26,26,0,0,0,.79,3.72l-.25-.11a1.7,1.7,0,0,0-2.17,1.2,2.4,2.4,0,0,0-.06,1.23l-.19,0a1.87,1.87,0,0,0-.94,2.89,1.72,1.72,0,0,0-.62,1,2.5,2.5,0,0,0,1.11,2.37c.89.74,1.86,1.7,2.67,2.5,1.07,1,2.28,2.07,3.28,2.91s2.64-1.92,2.66-2.84a1.18,1.18,0,0,0,1.55-1.21Q182.12,126.82,182.22,122.34Z" fill="#ffac99"></path><path d="M177,125.1q-.92-1.91-1.69-3.88c-.11-.28-.56-.16-.45.12q.8,2,1.74,4C176.77,125.6,177.17,125.37,177,125.1Z" fill="#af594a"></path><path d="M208.56,118.59s-4.32,3.91-6,6.61-8.38,10.11-11.15,7.88-7.66-6.48-7.66-6.48-7,4.81-6.26,9.8c0,0,6.2,12.68,15.88,9.88s12.08-6.45,12.08-6.45l1.46,8.24s12,3.76,17.56-1.82c0,0,3.65-23.68,1-27.22" fill="#ea7554"></path><path d="M207.23,104.25c-.09.27-.29,8.87,2.62,9.68s7.89-1.22,9.18-3.95-.55-11.4-5.16-11.9S208.05,101.74,207.23,104.25Z" fill="#ffac99"></path><path d="M210.78,105.84c1.92,1.3.7,3.78-.11,5.37a8.24,8.24,0,0,0-.86,3.92,5.15,5.15,0,0,1-1.25,3.46,13.69,13.69,0,0,0-1.64,2.61c4.2.95,8.63.66,12.91.16A100.14,100.14,0,0,0,230.35,120a6.33,6.33,0,0,0-.5-2.16c-.83-1.89-2.19-2.91-1.86-5.14.25-1.72.69-3.41.08-5.12s-2.1-2.57-3.52-3.61a9,9,0,0,1-1.15-1l-.3-.51c-.84-1.44-1.46-3.17-2.59-4.41a7.63,7.63,0,0,0-4.16-2.13,12.39,12.39,0,0,0-9.5,2.17s-2.51,2.41-1.72,5S209,104.67,210.78,105.84Z" fill="#f9d8a3"></path><path d="M211.42,206.08c3.26,5.41,8.43,13.68,10.62,15.44l-2.83,7.74s-11.79-16.56-10.64-28c0,0,1.17,2,2.85,4.81" fill="#635e00"></path><path d="M226.19,191.86a55.36,55.36,0,0,1-5.3-21.85c0-.6-1-.6-.94,0a56.54,56.54,0,0,0,5.42,22.33C225.64,192.87,226.45,192.4,226.19,191.86Z" fill="#635e00"></path><path d="M49.16,197.74l25.41-14.41-16.08-7.26L37.12,188C40.89,191.5,45.1,194.54,49.16,197.74Z" fill="url(#linear-gradient-3)" style="mix-blend-mode: multiply;"></path><polyline points="52.36 167.28 52.36 181 74.57 181 74.57 167.28" fill="#68e1fd"></polyline><ellipse cx="63.46" cy="167.28" rx="11.11" ry="5.46" fill="#68e1fd"></ellipse><ellipse cx="63.46" cy="167.28" rx="11.11" ry="5.46" opacity="0.19"></ellipse><ellipse cx="63.46" cy="181.54" rx="11.11" ry="5.46" fill="#68e1fd"></ellipse><path d="M75.9,135.36c-2.34-1-5.59-4.15-8.43-4.05a33.19,33.19,0,0,0-1.72,8.43,76.47,76.47,0,0,0-.32,14.07q.1,1.57.26,3.13a2.49,2.49,0,0,0,.25.88q0,5.43,0,10.87a.35.35,0,0,0,.69,0q0-5.23,0-10.45a15.41,15.41,0,0,0,3.18-1.47,10.82,10.82,0,0,0,4.47-5.62c1.79-5,.66-10.56,2.36-15.5C76.4,135.55,76.15,135.46,75.9,135.36Z" fill="#297600"></path><path d="M71.1,127.18a8.7,8.7,0,0,0-3.17,3.24,5.44,5.44,0,0,0-.5,1l-.1.21h0a14.52,14.52,0,0,0-.53,1.72,2.15,2.15,0,0,1,1.18-.93,2.94,2.94,0,0,1,1.85-.17,7.77,7.77,0,0,1,1.7.91c.79.48,1.55,1,2.34,1.51,3.68,2.34,8.58,2.58,11.42-.83,0-.13.07-.27.1-.41C85.8,131.07,79.24,122.45,71.1,127.18Z" fill="#5fad00"></path><path d="M83.66,135.26l.46-.3a.31.31,0,0,0-.09-.26c-2.22-2.28-4.61-4.52-7.65-5.65a13.11,13.11,0,0,0-6.83-.67c-.25.29-.47.59-.69.89a11.87,11.87,0,0,1,7.86.65,22,22,0,0,1,6.84,5.26A.33.33,0,0,0,83.66,135.26Z" fill="#297600"></path><path d="M46.38,140.23a9.27,9.27,0,0,0-5,8.9c.26,6.55,11.06.16,13.93-5.37s3.32,2.36,3.32,2.36" fill="#297600"></path><path d="M56.09,137.94a19.55,19.55,0,0,0-6,.83,14.54,14.54,0,0,0-3.73,1.46,12,12,0,0,0,2.16,1.15,6.56,6.56,0,0,1,3.49,2.5,5,5,0,0,1,.42,1c.66,2.16.09,4.77,1,6.94s2.7,4.08,5.25,4.24c3,.19,4.44-2.74,5-5.27s1.42-6,.46-8.58C63,139.17,59,138.08,56.09,137.94Z" fill="#5fad00"></path><path d="M60.1,148.17c-1.28-4.14-4-8-7.95-9.88H52l-.19.06-.72.19c4.61,1.71,7.51,6.26,8.7,10.91,1.51,5.95,1,12.39,1,18.47a.32.32,0,0,0,.64,0C61.44,161.43,62,154.46,60.1,148.17Z" fill="#297600"></path><polygon points="188.21 58.73 188.21 72.92 193.6 69.98 193.6 55.62 188.21 58.73" fill="#2252a4"></polygon><path d="M213.71,56.62V45.15L205.28,50V61.47C208.15,59.95,211,58.36,213.71,56.62Z" fill="#2252a4"></path><path d="M198.76,69.64v8.93L207.19,74v-9.1C204.45,66.59,201.62,68.13,198.76,69.64Z" fill="#2252a4"></path><path d="M211.42,76.49v8.93l8.42-4.59v-9.1C217.11,73.43,214.28,75,211.42,76.49Z" fill="#2252a4"></path><path d="M190.05,90.17V101.3l10.51-5.73V84.23C197.14,86.36,193.61,88.29,190.05,90.17Z" fill="#ffb727"></path><polygon points="190.91 108.57 190.91 122.77 196.3 119.82 196.3 105.46 190.91 108.57" fill="#ff9494"></polygon></g></g></svg>