<svg xmlns="http://www.w3.org/2000/svg" xmlns:xlink="http://www.w3.org/1999/xlink" viewBox="0 0 400 300" width="406" height="306" class="illustration styles_illustrationTablet__1DWOa"><defs><linearGradient id="linear-gradient" x1="244.19" y1="224.3" x2="284.39" y2="172.69" gradientUnits="userSpaceOnUse"><stop offset="0.01" stop-color="#8ec2fe"></stop><stop offset="1" stop-color="#8383ea"></stop></linearGradient><linearGradient id="linear-gradient-2" x1="314.04" y1="179.01" x2="341.6" y2="143.63" xlink:href="#linear-gradient"></linearGradient><linearGradient id="linear-gradient-3" x1="41.46" y1="192.97" x2="68.41" y2="175.26" xlink:href="#linear-gradient"></linearGradient><linearGradient id="linear-gradient-4" x1="95.94" y1="126.28" x2="305.38" y2="126.28" gradientUnits="userSpaceOnUse"><stop offset="0" stop-color="#f4d7b8"></stop><stop offset="1" stop-color="#fff" stop-opacity="0"></stop></linearGradient></defs><title>PP</title><g style="isolation: isolate;"><g id="Layer_2" data-name="Layer 2"><path d="M194.28,287.39,14.56,181.17C8.84,178,3.93,172.68,9.51,169.22l180.37-104c2.71-1.68,6.82-2.78,9.57-1.18L388.11,173.58c5.72,3.32,6.75,12.6,1,15.93L218,287.22A23.9,23.9,0,0,1,194.28,287.39Z" fill="#8ec2fe"></path><polyline points="281.95 230.28 250.8 249.33 207.87 216.48 270.96 177.57 281.95 204.17" fill="url(#linear-gradient)"></polyline><polyline points="369.3 175.71 332 198.14 274.45 162.2 319.04 139.2" fill="url(#linear-gradient-2)"></polyline><path d="M200.18,240.37l-29,16.57L130.6,233.1l28.33-16.25a2.79,2.79,0,0,1,2.81,0l38.44,22.78A.42.42,0,0,1,200.18,240.37Z" fill="#74abe2"></path><path d="M215.75,262.62l-29,16.57-40.62-23.85L174.5,239.1a2.79,2.79,0,0,1,2.81,0l38.44,22.78A.42.42,0,0,1,215.75,262.62Z" fill="#74abe2"></path><path d="M271,177.57s10.75-.37,12.48,2.48,2.95,10.94,5.72,11.34,3.57-6.46,3.95-11.18-.46-7-1.48-7.17-8.74-3.06-9.07-4.44,9.4.15,9.4.15l-.42-4.78-23.09,1.24Z" fill="#f77819"></path><path d="M240.53,183.32l37.76-.07s-2.14-14.43-7.5-21.53l-27.33-3.49" fill="#f28830"></path><path d="M272.76,212.74s4.65,5.2,3.15,8.59-8.12,9.69-6.71,12.48,8.19-.86,12.75-3.54,6.13-4.91,5.61-5.94-2.79-10-1.74-11.13,5.88,8.69,5.88,8.69l2.6-5.35-14.41-18.4Z" fill="#f77819"></path><path d="M212.32,111.8s-12.41,38.31-10.4,55.77,35.28,15.56,35.28,15.56L264,217.87a40.38,40.38,0,0,0,25.83-15.19s-8.6-12.09-14.7-18.2-22.65-27.57-23.34-34.08-8.24-30.9-15.89-34.91" fill="#f99943"></path><path d="M238,183.43a129,129,0,0,1-14.95-30.77q-1.54-4.67-2.71-9.44a.92.92,0,0,0-1.79.43,130.87,130.87,0,0,0,12.72,32.27q2.39,4.29,5.11,8.39C237,185.29,238.66,184.42,238,183.43Z" fill="#f77819"></path><path d="M224.16,85.09s-9.44-5.17-13,6.16S207.78,103,206.7,103.8s-17.46,6.66-17.46,6.66l9.36,5.6s11.31-2.07,13.73-4.26c3.67-3.32,5.65-9,5.65-9" fill="#68e1fd"></path><path d="M269.57,95.41c.84-2.25,1.59-4.53,2.34-6.84a46.92,46.92,0,0,0,2.54-10.09c-.6-1.61-2.76-2.84-4.28-3.2-1.91-.46-3.87.36-5.81.32-2.53,0-4.53-1-6.89-1.72a12.85,12.85,0,0,0-7.39.34c-4.56,1.41-9.21.92-13-2.09-2.15-1.71-3.83-3.11-6.55-3.82-4.2-1.11-8.53-.32-11.3,3.21-2.49,3.19-3,7.37-.39,10.63a10,10,0,0,0,5.3,2.95c1.85.53,3.58,1.62,5.48,2l.21,0a42.39,42.39,0,0,1,5.35.72c2.23.66,4.3,1.77,6.49,2.56,2.91,1,5.73.64,8.72.26,3.81-.48,5.83.7,8.78,2.87l.53.37a12.75,12.75,0,0,0,6.92,1.84A16.81,16.81,0,0,0,269.57,95.41Z" fill="#6e89fe"></path><path d="M267.7,115.29c1.16.65,2.4,1.33,3.67,1.9a64.75,64.75,0,0,0,6.86.22,9,9,0,0,1,2.9-.05,1.21,1.21,0,0,1,1.08,1.57,2.54,2.54,0,0,1-2.09,1.55c-.76.15-1.52.27-2.29.38a49.62,49.62,0,0,0,6.56,3c1.42.57.69,2.85-.74,2.28l-1.54-.62a27.71,27.71,0,0,1,2.43,1.8c.94.79.36,2.7-1,2.15a39,39,0,0,1-5.38-2.67q1.58,1.26,3.24,2.43c1.26.88,0,2.9-1.3,2q-2.33-1.64-4.52-3.46c.33.68.65,1.37.94,2.07.6,1.41-1.52,2.53-2.12,1.11s-1.22-2.69-1.9-4l-.15-.07q-5.57-3-11-6.31c-1.32-.79,0-2.81,1.3-2l1.68,1a1.4,1.4,0,0,1,.66-.87,1.19,1.19,0,0,1,1-1.82A1.25,1.25,0,0,1,267.7,115.29Z" fill="#ffc285"></path><path d="M277.13,122.07c-1.44,1.35-3.15,2.67-5.24,2.13-.42-.11-.27-.77.15-.66,1.84.47,3.34-.75,4.59-1.93C276.95,121.32,277.45,121.77,277.13,122.07Z" fill="#6d320b"></path><path d="M278.48,123.61a50.75,50.75,0,0,0,5.42,2.16c.31.1.2.6-.11.49a51.89,51.89,0,0,1-5.54-2.21C277.95,123.92,278.18,123.47,278.48,123.61Z" fill="#6d320b"></path><path d="M277.22,125.92a27.05,27.05,0,0,0,6.41,3.25c.3.11.2.6-.11.49a27.52,27.52,0,0,1-6.53-3.29C276.72,126.19,277,125.74,277.22,125.92Z" fill="#6d320b"></path><path d="M274.66,127.05a29.94,29.94,0,0,0,4.82,3.4c.28.16,0,.61-.24.45a30.61,30.61,0,0,1-4.92-3.47C274.07,127.21,274.41,126.84,274.66,127.05Z" fill="#6d320b"></path><path d="M227.05,85.37,225.24,85a20.39,20.39,0,0,1-3.29-.32,9.45,9.45,0,0,0-5.42,1.6c-3.57,2.54-3.94,8.66-4.23,12.61-.14,1.91-.25,3.87-.28,5.85s.2,4.17.29,6.95v.12a24.05,24.05,0,0,0,24.94,4.83s-1-21.76-3.24-28.53A34.49,34.49,0,0,0,227.05,85.37Z" fill="#68e1fd"></path><path d="M233.78,88s15.81,20.13,37.8,26.9c0,0-1.45,8.12-4.87,11.2,0,0-29.82-13.51-36.69-25.57" fill="#68e1fd"></path><path d="M219.44,75.32s-2.87,8.31,2.43,12.07,12.49-4.1,10.52-11.5S222.81,68.2,219.44,75.32Z" fill="#ffc285"></path><path d="M233.09,86.23a2.63,2.63,0,0,1-2.44-.73c-.78-.79-.71-1.91-.72-2.94a3.83,3.83,0,0,0-1.73-3.4c-1.39-.94-3.14-1.21-4.4-2.36-.13-.12-.26-.25-.37-.38a3.44,3.44,0,0,0,.54.41c2,1.24,5.09,1.54,6,2s-.57,4.27,1.14,5.93,5.75-8.74,3.41-11.57-10.06-6.14-13.41-1.44a12.09,12.09,0,0,0,.34,1.24,6.19,6.19,0,0,0,1.35,3.48c1.25,1.55,3.06,1.9,4.71,2.85a3.35,3.35,0,0,1,1.87,2.8,8.16,8.16,0,0,0,.31,2.89,3.11,3.11,0,0,0,3.52,1.67C233.56,86.64,233.4,86.16,233.09,86.23Z" fill="#6e89fe"></path><polyline points="215.72 140.7 232.72 130.71 202.45 110.94 186.38 117.31" fill="#3129a3"></polyline><path d="M215.71,139c.28-1.28-8.21-25.18-8.21-25.18l-35-19.89,10.7,27.24,32.52,19.54Z" fill="#7878ce"></path><ellipse cx="194.11" cy="118.52" rx="2.1" ry="4.14" transform="translate(-32.07 94.66) rotate(-25.38)" fill="#8ec2fe"></ellipse><path d="M214,91.85a167.46,167.46,0,0,0-1.67,19.58.5.5,0,0,0,1,0,165.19,165.19,0,0,1,1.64-19.31C215,91.48,214,91.21,214,91.85Z" fill="#2c8f99"></path><polygon points="236.75 108.02 233.27 104.74 237.28 116.64 236.75 108.02" fill="#4cc3d6"></polygon><path d="M182.8,118.09c-.08-.08-.17-.15-.25-.22a.64.64,0,0,0,.16-.46.93.93,0,0,0,.1-.13c.33-.6-.17-1.39-.53-2a.93.93,0,0,0,.41-.46,2,2,0,0,0-.69-1.9l0,0c.32-.69-.43-1.36-.9-1.78a6.09,6.09,0,0,0-1.54-1c-.16-.77-.3-1.54-.53-2.29-.16-.53-.59-1-1.2-.8s-.53.88-.45,1.38a11.29,11.29,0,0,0,.54,2,1,1,0,0,0-.43,1.38,2.77,2.77,0,0,0,.61.82,1.17,1.17,0,0,0-.43,1.32,1.59,1.59,0,0,0,.81.9,1,1,0,0,0-.19.24.94.94,0,0,0,.29,1.22,6,6,0,0,0,.77.56.72.72,0,0,0-.1.16c-.18.49.18,1,.47,1.34a4.79,4.79,0,0,0,1.35,1.11,5.72,5.72,0,0,0,1.76.77.6.6,0,0,0,.64-.26C183.91,119.37,183.23,118.53,182.8,118.09Z" fill="#ffc285"></path><path d="M364,175.36l-52.06-28.58a6.37,6.37,0,0,1-3.3-5.58V45.77a6.37,6.37,0,0,1,9.56-5.52L370.2,70.31a6.37,6.37,0,0,1,3.19,5.52v93.95A6.37,6.37,0,0,1,364,175.36Z" fill="#68e1fd"></path><path d="M360.8,108.88v22.84c0,6.64-10.31,6.65-10.31,0V108.88C350.48,102.25,360.8,102.24,360.8,108.88Z" fill="#56403d"></path><path d="M346.78,85.44v36.86c0,6.64-10.31,6.65-10.31,0V85.44C336.46,78.81,346.78,78.8,346.78,85.44Z" fill="#ffa197"></path><path d="M330.16,58.73v56.59c0,6.64-10.31,6.65-10.31,0V58.73C319.85,52.09,330.16,52.08,330.16,58.73Z" fill="#f2f2f2"></path><path d="M343,138.13l12.75,6.7c1.81,1,.21,3.69-1.6,2.74l-12.75-6.7C339.58,139.92,341.18,137.18,343,138.13Z" fill="#f2f2f2"></path><path d="M320.64,136.46q17.79,9.54,35.95,18.38c1.84.89.23,3.63-1.6,2.74Q336.83,148.74,319,139.2C317.24,138.23,318.84,135.49,320.64,136.46Z" fill="#f2f2f2"></path><path d="M212,249.33c.13,0,1.35-.49.33-1.27a21.08,21.08,0,0,0-2.13-1.46" fill="#e27825"></path><path d="M212,242.87s-1,3.79,0,5.82L198,256.87l-13.78,8V259" fill="#ffe8bc"></path><path d="M212.42,242.28q0,.39-.1.79L184.25,259v5.89l28.05-16.36c0,.23,0,.47,0,.7l-29.14,16.86v-8Z" fill="#e27825"></path><path d="M212.27,242.39l-29,16.57-40.62-23.85L171,218.86a2.79,2.79,0,0,1,2.81,0l38.44,22.78A.42.42,0,0,1,212.27,242.39Z" fill="#fdba45"></path><path d="M183.17,266.05s-40.6-23.91-40.47-24,0-6.92,0-6.92L183.32,259Z" fill="#e27825"></path><path d="M212.27,241.66a1,1,0,0,1,.42.73c0,.49-.48.73-.66.84" fill="#fdba45"></path><path d="M197.27,214.77c.13,0,1.35-.49.33-1.27a21.08,21.08,0,0,0-2.13-1.46" fill="#9a433a"></path><path d="M197.27,208.31s-1,3.79,0,5.82l-13.93,8.19-13.78,8V224.4" fill="#ffe8bc"></path><path d="M197.73,207.72q0,.39-.1.79L169.56,224.4v5.89l28.05-16.36c0,.23,0,.47,0,.7l-29.14,16.86v-8Z" fill="#9a433a"></path><path d="M197.57,207.83l-29,16.57L128,200.55l28.33-16.25a2.79,2.79,0,0,1,2.81,0l38.44,22.78A.42.42,0,0,1,197.57,207.83Z" fill="#f26250"></path><path d="M168.48,231.49s-40.6-23.91-40.47-24,0-6.92,0-6.92l40.62,23.85Z" fill="#9a433a"></path><path d="M197.58,207.1a1,1,0,0,1,.42.73c0,.49-.48.73-.66.84" fill="#f26250"></path><path d="M111,48,97.32,30.83S87,20.78,77,30.83s-3.28,18.36-3.28,18.36L92.23,69.68" fill="#f26250"></path><path d="M96.17,53.93l20-10.64a1,1,0,0,1,1.48,1.24L111.38,63.9a3.44,3.44,0,0,1-1.65,2L89.41,76.76a1.07,1.07,0,0,1-1.51-1.28l6.71-19.71A3.26,3.26,0,0,1,96.17,53.93Z" fill="#3b3b3b"></path><path d="M97.74,54.84l20-10.64a1,1,0,0,1,1.48,1.24l-6.28,19.37a3.44,3.44,0,0,1-1.65,2L91,77.66a1.07,1.07,0,0,1-1.51-1.28l6.71-19.71A3.26,3.26,0,0,1,97.74,54.84Z" fill="#727272"></path><ellipse cx="105.23" cy="60.75" rx="11.72" ry="5.18" transform="translate(-13.14 88.2) rotate(-43.05)" fill="#ffb94a"></ellipse><path d="M78.21,47.84,83,51v-22a2.49,2.49,0,0,1,1.28-2.17l16.37-9.12a1.38,1.38,0,0,1,2.06,1.25l.07,19.47,4.18,4.8V11.65a1.54,1.54,0,0,0-2.28-1.35L79.07,24.49A1.67,1.67,0,0,0,78.21,26Z" fill="#636363"></path><ellipse cx="81.82" cy="47.15" rx="3.88" ry="5.08" transform="translate(-4.23 8.26) rotate(-5.63)" fill="#636363"></ellipse><ellipse cx="80.7" cy="47.26" rx="3.88" ry="5.08" transform="translate(-4.25 8.15) rotate(-5.63)" fill="#727272"></ellipse><path d="M61.83,176,34.12,190.33s-1.53,1.79,8.81,7.93l28.19-17.33" fill="url(#linear-gradient-3)"></path><path d="M55,157.45c-1.07.13,4,19.26,7.39,22.77s7.92,2.65,10.58-1.35,5-20.19,5-20.19S80,154.45,55,157.45Z" fill="#68e1fd"></path><ellipse cx="66.43" cy="157.76" rx="11.57" ry="5.46" fill="#2e6300"></ellipse><path d="M53.84,142c2.79,3.19-.11,5.66.06,10.69S63,158.14,63,158.14c-.48-4.11,6.77-7,6.48-11.75s-6.63-2.15-4.32-7.38,1.48-11.88-2.21-14.33c-2.74-1.82-5.86-5.84-7.3-7.8,0,.56,0,1.12,0,1.68a14.89,14.89,0,0,1-2.57,8.87c-1.46,2.25-3.58,4.13-4.73,6.57a7.25,7.25,0,0,0-.31.78C46.95,139,51.42,139.28,53.84,142Z" fill="#cec300"></path><path d="M55.62,119q0,.42-.06.83a13.81,13.81,0,0,1,1.58,3.58c.74,3.09-1,6.16-.33,9.27.58,2.69,2.62,4.71,3.65,7.21,1.28,3.08-.09,6-.62,9-.6,3.5.92,6.41,2.7,9.32.16.26.55,0,.39-.26a22.66,22.66,0,0,1-2.31-4.49,9.29,9.29,0,0,1-.23-5c.56-2.74,1.67-5.43.72-8.22-.88-2.57-2.93-4.57-3.71-7.18-.94-3.16.87-6.32.25-9.5a15.1,15.1,0,0,0-2-4.44Z" fill="#2e6300"></path><path d="M83.19,135.43c3-1.23,5.92-5.49,3.77-8s-1.61-6.32-1.61-6.32a4.85,4.85,0,0,1-2.56,2.63c-6.05,2.09-6.59,5.58-6.72,8.27s3.09,8.47-6.58,11.57-1.62,14.79-1.62,14.79l3.75.7h0A40.53,40.53,0,0,1,80.1,155c5.78-2.15,3.63-7.26,1.08-10.22S80.23,136.66,83.19,135.43Z" fill="#cfe217"></path><path d="M85.15,121.76c-1.51,2.23-1.81,4.93-2.55,7.47-.8,2.75-2.58,4.86-4,7.29a11.52,11.52,0,0,0-1.42,3.62c-.27,1.4-.29,2.83-.43,4.24a11,11,0,0,1-1.32,4.47,26.56,26.56,0,0,1-2.63,3.58c-1.61,2-3.26,4.14-3.59,6.68h.48c.35-2.5,2-4.62,3.61-6.54s3.26-4.1,3.74-6.74c.53-2.92.24-5.83,1.68-8.53,1.21-2.27,3-4.21,3.91-6.64,1.1-2.85,1.19-6.07,2.94-8.66C85.73,121.75,85.32,121.51,85.15,121.76Z" fill="#2e6300"></path><path d="M67.43,159.09c-1.69-3.87-.78-9.16,2-12.7,3-3.72,4.71-7.18,2.69-11.15a16.26,16.26,0,0,1-1.75-7.73c-3,6.05-5.92,8.2-5.26,11.5S65,143.79,63,148.9c-1.9,4.73,1.19,9.35,1.67,10Q66,159.05,67.43,159.09Z" fill="#9abc0c"></path><path d="M65.75,159l.53,0c-1.46-3.72-2.19-7.71-.26-11.47.92-1.79,2.15-3.4,3-5.23a10.81,10.81,0,0,0,.76-6,19.55,19.55,0,0,1,.9-8.37c.1-.29-.36-.41-.45-.12a19.15,19.15,0,0,0-1,7.17c.07,1.29.31,2.57.26,3.87a8.68,8.68,0,0,1-.94,3.41c-.91,1.88-2.21,3.55-3.11,5.44a11.38,11.38,0,0,0-1,6.43A20.32,20.32,0,0,0,65.75,159Z" fill="#2e6300"></path><path d="M284.66,80.89,113.79,52.75s-3.54-3.93-12.1,4.22-5,11.79-5,11.79l136.77,132A174.26,174.26,0,0,0,270.54,155C283.6,132,285.54,106.51,284.66,80.89Z" fill="url(#linear-gradient-4)" style="mix-blend-mode: soft-light;"></path></g></g></svg>